<svg width="514" height="468" viewBox="0 0 514 468" fill="none" xmlns="http://www.w3.org/2000/svg">
<path d="M267.683 60.933C249.325 80.7358 239.848 106.941 229.536 131.887C219.223 156.832 206.499 182.348 184.283 197.711C168.51 208.619 144.121 203.516 127.088 212.291C99.6638 226.5 88.7815 238.549 82.1673 268.717C74.2938 304.585 134.233 396.084 191.905 417.451C227.256 430.534 276.617 423.986 304.028 398.125C331.44 372.265 326.986 321.697 331.585 284.292C334.912 257.345 333.163 229.363 342.348 203.821C350.487 181.195 366.738 162.042 374.041 139.124C383.757 108.637 375.154 68.0376 349.997 46.7634C325.289 25.9134 287.632 39.3937 267.683 60.933Z" fill="#3C50E0"/>
<g opacity="0.9">
<path d="M267.683 60.933C249.325 80.7358 239.848 106.941 229.536 131.887C219.223 156.832 206.499 182.348 184.283 197.711C168.51 208.619 144.121 203.516 127.088 212.291C99.6638 226.5 88.7815 238.549 82.1673 268.717C74.2938 304.585 134.233 396.084 191.905 417.451C227.256 430.534 276.617 423.986 304.028 398.125C331.44 372.265 326.986 321.697 331.585 284.292C334.912 257.345 333.163 229.363 342.348 203.821C350.487 181.195 366.738 162.042 374.041 139.124C383.757 108.637 375.154 68.0376 349.997 46.7634C325.289 25.9134 287.632 39.3937 267.683 60.933Z" fill="white" stroke="white" stroke-miterlimit="10"/>
</g>
<path d="M267.683 60.933C249.325 80.7358 239.848 106.941 229.536 131.887C219.223 156.832 206.499 182.348 184.283 197.711C168.51 208.619 144.121 203.516 127.088 212.291C99.6638 226.5 88.7815 238.549 82.1673 268.717C74.2938 304.585 134.233 396.084 191.905 417.451C227.256 430.534 276.617 423.986 304.028 398.125C331.44 372.265 326.986 321.697 331.585 284.292C334.912 257.345 333.163 229.363 342.348 203.821C350.487 181.195 366.738 162.042 374.041 139.124C383.757 108.637 375.154 68.0376 349.997 46.7634C325.289 25.9134 287.632 39.3937 267.683 60.933Z" fill="#3C50E0"/>
<g opacity="0.9">
<path d="M267.683 60.933C249.325 80.7358 239.848 106.941 229.536 131.887C219.223 156.832 206.499 182.348 184.283 197.711C168.51 208.619 144.121 203.516 127.088 212.291C99.6638 226.5 88.7815 238.549 82.1673 268.717C74.2938 304.585 134.233 396.084 191.905 417.451C227.256 430.534 276.617 423.986 304.028 398.125C331.44 372.265 326.986 321.697 331.585 284.292C334.912 257.345 333.163 229.363 342.348 203.821C350.487 181.195 366.738 162.042 374.041 139.124C383.757 108.637 375.154 68.0376 349.997 46.7634C325.289 25.9134 287.632 39.3937 267.683 60.933Z" fill="white" stroke="white" stroke-miterlimit="10"/>
</g>
<path d="M257 467.435C398.937 467.435 514 460.718 514 452.431C514 444.144 398.937 437.426 257 437.426C115.063 437.426 0 444.144 0 452.431C0 460.718 115.063 467.435 257 467.435Z" fill="#A9A9A9"/>
<path d="M121.098 203.246C133.318 190.48 131.933 169.323 118.004 155.989C104.076 142.655 82.8776 142.194 70.6574 154.96C58.4372 167.725 59.8223 188.883 73.751 202.216C87.6798 215.55 108.878 216.011 121.098 203.246Z" fill="#3C50E0"/>
<g opacity="0.8">
<path d="M121.098 203.246C133.318 190.48 131.933 169.323 118.004 155.989C104.076 142.655 82.8776 142.194 70.6574 154.96C58.4372 167.725 59.8223 188.883 73.751 202.216C87.6798 215.55 108.878 216.011 121.098 203.246Z" fill="white"/>
</g>
<path d="M80.2986 158.131C80.0204 158.131 79.7493 158.044 79.5236 157.881C79.2979 157.719 79.1291 157.489 79.0412 157.225C78.9532 156.961 78.9505 156.676 79.0334 156.411C79.1164 156.145 79.2808 155.912 79.5033 155.746C83.9667 152.542 89.3464 150.868 94.8393 150.974C95.1908 150.974 95.528 151.113 95.7766 151.362C96.0252 151.611 96.1648 151.948 96.1648 152.299C96.1648 152.651 96.0252 152.988 95.7766 153.237C95.528 153.485 95.1908 153.625 94.8393 153.625C89.9196 153.516 85.0971 155.004 81.0939 157.866C80.8645 158.038 80.5854 158.131 80.2986 158.131Z" fill="#3C50E0"/>
<path d="M86.5683 203.728C86.3508 203.727 86.1368 203.673 85.9454 203.569C81.8832 201.397 78.3584 198.344 75.6292 194.633C72.8999 190.922 71.0353 186.648 70.172 182.123C69.3298 178.209 69.3686 174.156 70.2856 170.259C71.2026 166.362 72.9748 162.717 75.474 159.589C75.699 159.319 76.0222 159.149 76.3727 159.116C76.7232 159.084 77.0722 159.192 77.3429 159.417C77.6136 159.642 77.7838 159.965 77.8161 160.316C77.8485 160.666 77.7402 161.015 77.5152 161.286C75.2576 164.117 73.6592 167.416 72.8361 170.942C72.013 174.469 71.9858 178.134 72.7567 181.672C73.5508 185.809 75.2573 189.716 77.7521 193.109C80.2468 196.503 83.467 199.297 87.1781 201.289C87.4372 201.429 87.6424 201.652 87.7613 201.921C87.8801 202.19 87.9059 202.492 87.8344 202.777C87.763 203.063 87.5985 203.317 87.3668 203.499C87.1352 203.68 86.8496 203.78 86.5551 203.781L86.5683 203.728Z" fill="#3C50E0"/>
<path d="M99.8366 207.188C96.8697 207.175 93.9229 206.701 91.1016 205.783C90.9354 205.729 90.7814 205.643 90.6485 205.529C90.5155 205.416 90.4063 205.277 90.3269 205.122C90.2475 204.966 90.1995 204.796 90.1858 204.622C90.172 204.448 90.1927 204.272 90.2467 204.106C90.3006 203.94 90.3868 203.786 90.5003 203.653C90.6137 203.52 90.7523 203.411 90.908 203.331C91.0637 203.252 91.2335 203.204 91.4077 203.19C91.5819 203.177 91.7572 203.197 91.9234 203.251C100.075 205.902 108.214 204.418 114.245 199.275C117.304 196.574 119.617 193.131 120.959 189.277C122.3 185.423 122.627 181.288 121.906 177.271C121.85 176.92 121.936 176.56 122.144 176.272C122.353 175.984 122.668 175.79 123.019 175.734C123.371 175.678 123.731 175.763 124.019 175.972C124.307 176.181 124.501 176.496 124.557 176.847C125.361 181.311 124.996 185.906 123.497 190.187C121.999 194.468 119.419 198.288 116.008 201.276C111.513 205.143 105.766 207.244 99.8366 207.188Z" fill="#3C50E0"/>
<path d="M122.132 173.878C121.85 173.877 121.577 173.787 121.351 173.62C121.124 173.453 120.957 173.219 120.872 172.95C119.653 169.186 117.657 165.72 115.013 162.777C112.369 159.834 109.136 157.479 105.523 155.865C105.2 155.724 104.945 155.461 104.816 155.133C104.687 154.805 104.693 154.439 104.834 154.115C104.975 153.792 105.238 153.537 105.566 153.408C105.894 153.279 106.26 153.285 106.584 153.426C110.54 155.194 114.08 157.774 116.975 160.999C119.871 164.223 122.056 168.019 123.391 172.142C123.5 172.476 123.471 172.839 123.312 173.152C123.153 173.466 122.876 173.703 122.543 173.812C122.409 173.852 122.271 173.875 122.132 173.878Z" fill="#3C50E0"/>
<path d="M101.241 154.367C101.14 154.381 101.038 154.381 100.936 154.367C98.9416 153.902 96.9005 153.667 94.8523 153.664C94.5008 153.664 94.1637 153.525 93.9151 153.276C93.6665 153.028 93.5269 152.691 93.5269 152.339C93.5269 151.987 93.6665 151.65 93.9151 151.402C94.1637 151.153 94.5008 151.013 94.8523 151.013C97.0841 151.02 99.3078 151.283 101.48 151.796C101.831 151.836 102.152 152.014 102.372 152.292C102.592 152.569 102.693 152.922 102.653 153.273C102.612 153.625 102.434 153.946 102.157 154.166C101.88 154.386 101.527 154.487 101.175 154.447L101.241 154.367Z" fill="#3C50E0"/>
<path d="M77.8597 186.033C77.5888 186.034 77.3242 185.952 77.1015 185.798C76.8787 185.644 76.7085 185.425 76.6137 185.171C75.3712 181.964 74.9342 178.501 75.3409 175.086C75.7476 171.67 76.9857 168.406 78.9466 165.581C80.8001 162.904 83.2827 160.723 86.1763 159.23C89.0699 157.737 92.2859 156.977 95.5417 157.018C95.8933 157.018 96.2304 157.158 96.479 157.406C96.7276 157.655 96.8672 157.992 96.8672 158.343C96.8672 158.695 96.7276 159.032 96.479 159.281C96.2304 159.529 95.8933 159.669 95.5417 159.669C92.7129 159.636 89.9188 160.295 87.4029 161.588C84.887 162.882 82.7257 164.771 81.1071 167.092C79.3876 169.58 78.3058 172.453 77.9568 175.458C77.6078 178.462 78.0023 181.507 79.1056 184.323C79.2257 184.652 79.2108 185.015 79.0643 185.333C78.9178 185.65 78.6515 185.897 78.3236 186.02C78.1707 186.05 78.014 186.054 77.8597 186.033Z" fill="#3C50E0"/>
<path d="M98.8821 201.17C94.9091 201.037 91.0269 199.947 87.5654 197.993C84.1039 196.038 81.1654 193.277 78.9997 189.943C78.8388 189.65 78.7945 189.308 78.8755 188.983C78.9566 188.659 79.1571 188.378 79.437 188.195C79.7168 188.012 80.0552 187.942 80.3846 187.998C80.714 188.055 81.01 188.233 81.2133 188.498C83.1382 191.464 85.7485 193.923 88.8238 195.667C91.8991 197.411 95.3491 198.389 98.8821 198.519C99.2337 198.519 99.5708 198.659 99.8194 198.907C100.068 199.156 100.208 199.493 100.208 199.845C100.208 200.196 100.068 200.533 99.8194 200.782C99.5708 201.031 99.2337 201.17 98.8821 201.17Z" fill="#3C50E0"/>
<path d="M103.84 200.6C103.537 200.609 103.24 200.514 102.999 200.33C102.758 200.147 102.587 199.887 102.514 199.593C102.43 199.252 102.485 198.891 102.666 198.591C102.848 198.29 103.141 198.074 103.482 197.989C114.231 195.338 117.015 185.914 116.127 178.676C114.974 169.239 107.524 159.682 95.5023 159.669C95.1507 159.669 94.8136 159.529 94.565 159.281C94.3164 159.032 94.1768 158.695 94.1768 158.343C94.1768 157.992 94.3164 157.655 94.565 157.406C94.8136 157.158 95.1507 157.018 95.5023 157.018C109.062 157.018 117.466 167.754 118.765 178.358C120.09 189.294 114.351 198.015 104.118 200.56C104.027 200.583 103.934 200.597 103.84 200.6Z" fill="#3C50E0"/>
<path d="M90.1208 166.986C89.8695 166.984 89.624 166.91 89.4128 166.774C89.2016 166.638 89.0334 166.445 88.9279 166.217C88.7785 165.899 88.7617 165.534 88.881 165.204C89.0003 164.873 89.246 164.603 89.5641 164.454C91.5961 163.555 93.7975 163.103 96.0193 163.128C96.3708 163.128 96.7079 163.268 96.9565 163.517C97.2051 163.765 97.3447 164.102 97.3447 164.454C97.3447 164.805 97.2051 165.143 96.9565 165.391C96.7079 165.64 96.3708 165.779 96.0193 165.779C94.1898 165.781 92.3819 166.174 90.7173 166.933C90.5251 166.996 90.3211 167.014 90.1208 166.986Z" fill="#3C50E0"/>
<path d="M98.6436 194.993C95.2866 194.94 92.0154 193.925 89.2174 192.069C86.4195 190.213 84.2122 187.594 82.857 184.522C80.1132 178.544 80.9218 172.301 85.0176 167.794C85.2552 167.537 85.5853 167.383 85.9356 167.369C86.2859 167.354 86.6278 167.478 86.8865 167.715C87.1442 167.952 87.2973 168.283 87.3122 168.633C87.3271 168.983 87.2026 169.325 86.966 169.584C85.319 171.447 84.2753 173.765 83.9724 176.233C83.6695 178.701 84.1217 181.203 85.2694 183.409C86.4409 186.086 88.3733 188.36 90.8264 189.949C93.2796 191.537 96.1454 192.369 99.0678 192.342C101.279 192.326 103.437 191.671 105.284 190.455C107.13 189.239 108.585 187.514 109.473 185.49C110.471 183.101 110.772 180.479 110.34 177.926C109.909 175.373 108.762 172.996 107.034 171.068C106.921 170.936 106.835 170.783 106.781 170.617C106.727 170.452 106.706 170.277 106.72 170.104C106.733 169.93 106.781 169.761 106.86 169.606C106.939 169.451 107.048 169.312 107.18 169.199C107.312 169.086 107.465 169 107.631 168.946C107.796 168.892 107.971 168.872 108.144 168.885C108.318 168.899 108.487 168.946 108.642 169.025C108.798 169.104 108.936 169.213 109.049 169.345C111.106 171.653 112.466 174.497 112.971 177.548C113.475 180.598 113.104 183.729 111.899 186.577C110.811 189.061 109.029 191.178 106.767 192.673C104.505 194.169 101.859 194.979 99.1473 195.007L98.6436 194.993Z" fill="#3C50E0"/>
<path d="M104.224 168.152C103.974 168.154 103.729 168.08 103.522 167.94C101.283 166.5 98.681 165.727 96.0193 165.713C95.6678 165.713 95.3307 165.574 95.0821 165.325C94.8335 165.076 94.6938 164.739 94.6938 164.388C94.6938 164.036 94.8335 163.699 95.0821 163.45C95.3307 163.202 95.6678 163.062 96.0193 163.062C99.1853 163.074 102.281 163.994 104.94 165.713C105.18 165.868 105.364 166.097 105.463 166.365C105.563 166.633 105.573 166.926 105.493 167.2C105.412 167.474 105.245 167.715 105.017 167.887C104.788 168.058 104.51 168.151 104.224 168.152Z" fill="#3C50E0"/>
<path d="M97.9409 189.015C96.3921 189.005 94.8645 188.655 93.4653 187.991C92.0661 187.327 90.8294 186.365 89.8421 185.171C88.5681 183.713 87.7407 181.919 87.4587 180.004C87.1766 178.088 87.4519 176.132 88.2515 174.369C88.9653 172.768 90.1334 171.412 91.6109 170.47C93.0883 169.527 94.8101 169.039 96.5624 169.067C96.9139 169.067 97.251 169.206 97.4996 169.455C97.7482 169.704 97.8879 170.041 97.8879 170.392C97.8879 170.744 97.7482 171.081 97.4996 171.329C97.251 171.578 96.9139 171.718 96.5624 171.718C95.3229 171.695 94.1039 172.035 93.0558 172.697C92.0076 173.359 91.1761 174.313 90.6639 175.442C90.0811 176.744 89.8849 178.186 90.0988 179.596C90.3127 181.006 90.9275 182.325 91.8701 183.395C92.8085 184.545 94.0542 185.405 95.4621 185.874C96.8701 186.343 98.3825 186.403 99.8231 186.046C100.995 185.782 102.067 185.188 102.91 184.332C103.754 183.477 104.334 182.397 104.582 181.221C104.658 180.879 104.866 180.581 105.162 180.392C105.458 180.203 105.816 180.139 106.159 180.214C106.33 180.25 106.492 180.32 106.635 180.419C106.779 180.518 106.902 180.644 106.997 180.791C107.092 180.937 107.157 181.101 107.188 181.273C107.219 181.445 107.217 181.621 107.18 181.791C106.829 183.45 106.011 184.974 104.822 186.184C103.634 187.393 102.125 188.238 100.473 188.618C99.6475 188.851 98.7976 188.984 97.9409 189.015Z" fill="#3C50E0"/>
<path d="M105.656 178.517C105.363 178.531 105.075 178.447 104.835 178.279C104.595 178.111 104.418 177.869 104.33 177.59C103.801 175.929 102.767 174.475 101.373 173.429C99.9781 172.384 98.2921 171.799 96.5496 171.757C96.1981 171.757 95.8609 171.618 95.6123 171.369C95.3638 171.121 95.2241 170.784 95.2241 170.432C95.2241 170.08 95.3638 169.743 95.6123 169.495C95.8609 169.246 96.1981 169.107 96.5496 169.107C98.8542 169.158 101.086 169.926 102.934 171.303C104.782 172.681 106.155 174.6 106.862 176.794C106.916 176.961 106.936 177.136 106.921 177.31C106.907 177.484 106.858 177.653 106.778 177.808C106.698 177.964 106.588 178.102 106.455 178.214C106.321 178.327 106.167 178.412 106 178.464C105.888 178.497 105.772 178.515 105.656 178.517Z" fill="#3C50E0"/>
<path d="M98.299 183.501C97.9474 183.501 97.6103 183.362 97.3617 183.113C97.1131 182.865 96.9735 182.527 96.9735 182.176C96.9735 181.824 97.1131 181.487 97.3617 181.239C97.6103 180.99 97.9474 180.85 98.299 180.85C98.4799 180.851 98.659 180.814 98.8253 180.742C98.9915 180.671 99.1413 180.566 99.2655 180.434C99.3897 180.303 99.4856 180.147 99.5473 179.977C99.6091 179.807 99.6353 179.626 99.6245 179.445C99.6315 179.187 99.5872 178.93 99.4941 178.69C99.401 178.449 99.2609 178.229 99.0821 178.043C98.9033 177.856 98.6892 177.708 98.4524 177.605C98.2155 177.502 97.9607 177.447 97.7025 177.444C97.5081 177.449 97.3166 177.493 97.1391 177.572C96.9616 177.652 96.8017 177.766 96.6686 177.908C96.5328 178.068 96.43 178.254 96.3663 178.454C96.3026 178.654 96.2792 178.865 96.2975 179.074C96.3079 179.248 96.284 179.423 96.227 179.587C96.17 179.752 96.0812 179.904 95.9655 180.035C95.8498 180.165 95.7095 180.272 95.5527 180.348C95.3959 180.424 95.2256 180.469 95.0515 180.479C94.8774 180.49 94.703 180.466 94.5382 180.409C94.3734 180.352 94.2214 180.263 94.0909 180.147C93.9605 180.032 93.8541 179.891 93.7778 179.734C93.7015 179.578 93.6569 179.407 93.6465 179.233C93.5993 178.677 93.6664 178.117 93.8435 177.588C94.0206 177.058 94.3041 176.571 94.6765 176.155C95.0489 175.739 95.5023 175.404 96.009 175.17C96.5157 174.935 97.0649 174.807 97.6229 174.793C98.2297 174.795 98.8301 174.917 99.3894 175.152C99.9486 175.387 100.456 175.731 100.881 176.164C101.306 176.597 101.642 177.11 101.867 177.673C102.093 178.236 102.205 178.839 102.196 179.445C102.206 179.974 102.111 180.5 101.916 180.991C101.721 181.483 101.43 181.931 101.06 182.309C100.689 182.686 100.247 182.986 99.7598 183.191C99.2721 183.396 98.7484 183.501 98.2194 183.501H98.299Z" fill="#3C50E0"/>
<path d="M132.404 179.087C134.021 197.552 120.355 212.516 101.918 212.516H100.486C118.062 211.615 130.827 197.008 129.262 179.127C128.359 170.375 124.39 162.224 118.056 156.116C111.723 150.008 103.433 146.337 94.6538 145.751C95.1177 145.751 95.5949 145.751 96.0721 145.751C114.563 145.672 130.84 160.637 132.404 179.087Z" fill="#3C50E0"/>
<g opacity="0.4">
<path d="M132.404 179.087C134.021 197.552 120.355 212.516 101.918 212.516H100.486C118.062 211.615 130.827 197.008 129.262 179.127C128.359 170.375 124.39 162.224 118.056 156.116C111.723 150.008 103.433 146.337 94.6538 145.751C95.1177 145.751 95.5949 145.751 96.0721 145.751C114.563 145.672 130.84 160.637 132.404 179.087Z" fill="white"/>
</g>
<path d="M159.47 16.171C159.503 16.5668 159.556 16.9605 159.629 17.3507C160.13 19.9046 161.44 22.229 163.367 23.9782C165.551 26.0225 168.422 27.1721 171.413 27.1992H283.404C284.711 27.2255 286.011 26.9917 287.227 26.5112C288.443 26.0308 289.551 25.3133 290.487 24.4006C291.423 23.4878 292.169 22.398 292.68 21.1945C293.191 19.9911 293.458 18.698 293.465 17.3905C293.484 16.9975 293.484 16.6038 293.465 16.2108C293.152 13.243 291.768 10.491 289.572 8.47058C287.376 6.45014 284.519 5.3 281.535 5.23573H169.518C168.113 5.20734 166.719 5.47802 165.428 6.02981C164.136 6.58159 162.977 7.40184 162.026 8.4361C161.076 9.47035 160.357 10.6949 159.916 12.0285C159.475 13.3621 159.323 14.7742 159.47 16.171Z" fill="#3C50E0"/>
<path opacity="0.8" d="M159.47 16.171C159.503 16.5668 159.556 16.9605 159.629 17.3507C160.13 19.9046 161.44 22.229 163.367 23.9782C165.551 26.0225 168.422 27.1721 171.413 27.1992H283.404C284.711 27.2255 286.011 26.9917 287.227 26.5112C288.443 26.0308 289.551 25.3133 290.487 24.4006C291.423 23.4878 292.169 22.398 292.68 21.1945C293.191 19.9911 293.458 18.698 293.465 17.3905C293.484 16.9975 293.484 16.6038 293.465 16.2108C293.152 13.243 291.768 10.491 289.572 8.47058C287.376 6.45014 284.519 5.3 281.535 5.23573H169.518C168.113 5.20734 166.719 5.47802 165.428 6.02981C164.136 6.58159 162.977 7.40184 162.026 8.4361C161.076 9.47035 160.357 10.6949 159.916 12.0285C159.475 13.3621 159.323 14.7742 159.47 16.171Z" fill="white"/>
<path d="M293.465 17.311C293.465 17.6659 293.439 18.0204 293.385 18.3714C292.99 15.4708 291.57 12.8073 289.382 10.8624C287.194 8.91757 284.383 7.81974 281.456 7.76741L162.387 8.03251C163.331 7.11433 164.446 6.39121 165.67 5.90449C166.894 5.41777 168.201 5.177 169.518 5.19595H281.509C284.492 5.26023 287.35 6.41037 289.546 8.43081C291.742 10.4512 293.126 13.2033 293.438 16.171C293.466 16.5504 293.474 16.9308 293.465 17.311Z" fill="#3C50E0"/>
<path opacity="0.5" d="M293.465 17.311C293.465 17.6659 293.439 18.0204 293.385 18.3714C292.99 15.4708 291.57 12.8073 289.382 10.8624C287.194 8.91757 284.383 7.81974 281.456 7.76741L162.387 8.03251C163.331 7.11433 164.446 6.39121 165.67 5.90449C166.894 5.41777 168.201 5.177 169.518 5.19595H281.509C284.492 5.26023 287.35 6.41037 289.546 8.43081C291.742 10.4512 293.126 13.2033 293.438 16.171C293.466 16.5504 293.474 16.9308 293.465 17.311Z" fill="white"/>
<path d="M274.232 10.4979L274.709 15.7999L279.693 13.9442L280.872 16.5952L275.782 18.2918L279.441 22.7852L277.148 24.4686L273.582 19.8029L270.931 24.4686L268.426 22.7852L271.249 18.2918L265.947 16.5952L266.663 13.9442L272.031 15.7336L271.554 10.4316L274.232 10.4979Z" fill="#3C50E0"/>
<path d="M243.546 10.4979L244.023 15.7999L249.007 13.9442L250.2 16.5952L245.07 18.3316L248.729 22.825L246.449 24.5084L242.883 19.8427L240.232 24.5084L237.714 22.825L240.551 18.3316L235.249 16.635L235.964 13.984L241.333 15.7734L240.869 10.4714L243.546 10.4979Z" fill="#3C50E0"/>
<path d="M212.927 10.4979L213.391 15.7999L218.375 13.9442L219.568 16.5952L214.465 18.2918L218.123 22.7852L215.909 24.5084L212.344 19.8427L209.693 24.5084L207.188 22.825L210.011 18.3316L204.709 16.635L205.438 13.984L210.74 15.7734L210.276 10.4714L212.927 10.4979Z" fill="#3C50E0"/>
<path d="M182.296 10.4979L182.759 15.7999L187.757 13.9442L188.936 16.5952L183.833 18.2918L187.505 22.7852L185.212 24.4686L181.646 19.8029L178.995 24.4686L176.49 22.7852L179.313 18.2918L174.011 16.5952L174.727 13.9442L180.029 15.7336L179.565 10.4316L182.296 10.4979Z" fill="#3C50E0"/>
<path d="M256.536 0H251.314V1.32549H256.536V0Z" fill="#3C50E0"/>
<path d="M278.977 0H261.944V1.32549H278.977V0Z" fill="#3C50E0"/>
<path opacity="0.8" d="M452.895 49.4409L447.474 111.421C447.265 113.399 446.342 115.233 444.878 116.58C443.414 117.927 441.51 118.694 439.521 118.738H396.482C395.551 118.743 394.629 118.551 393.776 118.176C392.924 117.801 392.16 117.25 391.534 116.56C390.909 115.869 390.436 115.055 390.147 114.169C389.857 113.284 389.758 112.347 389.855 111.421L395.276 49.4277C395.477 47.4462 396.397 45.6072 397.863 44.2588C399.329 42.9104 401.238 42.1462 403.229 42.1109H446.268C447.201 42.1057 448.124 42.2974 448.977 42.6735C449.831 43.0496 450.596 43.6016 451.221 44.2935C451.847 44.9854 452.319 45.8015 452.608 46.6885C452.896 47.5755 452.994 48.5134 452.895 49.4409Z" fill="#3C50E0"/>
<path opacity="0.8" d="M452.895 49.4409L447.474 111.421C447.265 113.399 446.342 115.233 444.878 116.58C443.414 117.927 441.51 118.694 439.521 118.738H396.482C395.551 118.743 394.629 118.551 393.776 118.176C392.924 117.801 392.16 117.25 391.534 116.56C390.909 115.869 390.436 115.055 390.147 114.169C389.857 113.284 389.758 112.347 389.855 111.421L395.276 49.4277C395.477 47.4462 396.397 45.6072 397.863 44.2588C399.329 42.9104 401.238 42.1462 403.229 42.1109H446.268C447.201 42.1057 448.124 42.2974 448.977 42.6735C449.831 43.0496 450.596 43.6016 451.221 44.2935C451.847 44.9854 452.319 45.8015 452.608 46.6885C452.896 47.5755 452.994 48.5134 452.895 49.4409Z" fill="white"/>
<path d="M399.2 59.4351H399.08C398.731 59.4048 398.408 59.237 398.181 58.9687C397.955 58.7003 397.845 58.3533 397.874 58.0036L398.378 52.3305C398.408 52 398.561 51.6928 398.806 51.4694C399.051 51.2461 399.372 51.1229 399.703 51.1243H405.695C406.046 51.1243 406.383 51.2639 406.632 51.5125C406.881 51.7611 407.02 52.0982 407.02 52.4498C407.02 52.8013 406.881 53.1385 406.632 53.387C406.383 53.6356 406.046 53.7753 405.695 53.7753H400.923L400.525 58.2289C400.495 58.5594 400.343 58.8667 400.097 59.09C399.852 59.3133 399.532 59.4365 399.2 59.4351Z" fill="#3C50E0"/>
<path d="M447.395 59.4351H447.275C446.926 59.4048 446.602 59.237 446.376 58.9687C446.15 58.7003 446.04 58.3533 446.069 58.0036L446.44 53.7753H441.907C441.555 53.7753 441.218 53.6356 440.97 53.387C440.721 53.1385 440.582 52.8013 440.582 52.4498C440.582 52.0982 440.721 51.7611 440.97 51.5125C441.218 51.2639 441.555 51.1243 441.907 51.1243H447.872C448.056 51.1235 448.239 51.1614 448.408 51.2353C448.577 51.3092 448.729 51.4177 448.854 51.5537C448.979 51.6897 449.074 51.8503 449.133 52.0251C449.192 52.2 449.214 52.3853 449.197 52.5691L448.694 58.2289C448.664 58.5549 448.515 58.8584 448.275 59.0811C448.036 59.3038 447.722 59.4299 447.395 59.4351Z" fill="#3C50E0"/>
<path d="M401.48 102.209H395.488C395.307 102.208 395.127 102.17 394.96 102.097C394.794 102.024 394.644 101.918 394.521 101.785C394.397 101.65 394.302 101.491 394.243 101.317C394.183 101.144 394.161 100.96 394.176 100.777L394.666 95.1042C394.696 94.7527 394.865 94.4274 395.134 94.1999C395.404 93.9725 395.753 93.8615 396.105 93.8914C396.456 93.9213 396.781 94.0896 397.009 94.3593C397.236 94.629 397.347 94.978 397.317 95.3295L396.946 99.5579H401.48C401.831 99.5579 402.168 99.6975 402.417 99.9461C402.665 100.195 402.805 100.532 402.805 100.883C402.805 101.235 402.665 101.572 402.417 101.821C402.168 102.069 401.831 102.209 401.48 102.209Z" fill="#3C50E0"/>
<path d="M443.643 102.209H437.665C437.314 102.209 436.977 102.069 436.728 101.821C436.48 101.572 436.34 101.235 436.34 100.883C436.34 100.532 436.48 100.195 436.728 99.9461C436.977 99.6975 437.314 99.5578 437.665 99.5578H442.437L442.822 95.1042C442.852 94.7546 443.02 94.4313 443.288 94.2052C443.556 93.9791 443.903 93.8686 444.253 93.898C444.603 93.9283 444.926 94.0961 445.152 94.3644C445.378 94.6328 445.489 94.9798 445.459 95.3295L444.969 101.003C444.939 101.333 444.786 101.64 444.541 101.864C444.295 102.087 443.975 102.21 443.643 102.209Z" fill="#3C50E0"/>
<path d="M439.081 80.8376C442.073 69.2336 436.937 57.8765 427.608 55.4709C418.28 53.0653 408.291 60.5221 405.299 72.1262C402.307 83.7302 407.443 95.0873 416.772 97.4929C426.1 99.8985 436.088 92.4416 439.081 80.8376Z" fill="white"/>
<path d="M427.393 109.473H410.228L411.725 92.3074H428.89L427.393 109.473Z" fill="white"/>
<path d="M447.474 111.421C447.265 113.399 446.342 115.233 444.878 116.58C443.414 117.927 441.51 118.694 439.521 118.738H396.482C395.551 118.743 394.629 118.551 393.776 118.176C392.924 117.801 392.16 117.25 391.534 116.56C390.909 115.869 390.436 115.055 390.147 114.169C389.857 113.284 389.758 112.347 389.855 111.421C389.855 111.421 409.631 105.165 412.07 105.165H427.353L447.474 111.421Z" fill="white"/>
<path d="M455.395 67.5544L453.389 91.9008L454.71 92.0096L456.716 67.6633L455.395 67.5544Z" fill="#3C50E0"/>
<path d="M456.789 56.4135L456.395 61.1956L457.716 61.3045L458.11 56.5224L456.789 56.4135Z" fill="#3C50E0"/>
<path d="M410.598 204.298H405.376V205.624H410.598V204.298Z" fill="#3C50E0"/>
<path d="M433.039 204.298H416.006V205.624H433.039V204.298Z" fill="#3C50E0"/>
<path d="M464.215 181.672L460.914 219.449C460.743 221.118 459.966 222.667 458.73 223.803C457.494 224.939 455.886 225.582 454.207 225.612C453.418 225.626 452.634 225.472 451.909 225.16C451.183 224.848 450.533 224.385 450 223.802C449.467 223.219 449.064 222.529 448.818 221.779C448.573 221.028 448.489 220.234 448.574 219.449L451.848 181.672C452.153 178.855 451.855 176.005 450.975 173.311C450.094 170.617 448.651 168.142 446.74 166.048C444.83 163.955 442.496 162.292 439.894 161.169C437.292 160.047 434.481 159.49 431.648 159.536H418.181C412.157 159.65 406.384 161.965 401.95 166.042C397.516 170.12 394.727 175.68 394.11 181.672L392.784 197.101H380.457L381.783 181.672C383.439 162.665 400.26 147.209 419.254 147.209H432.774C437.185 147.137 441.562 148.003 445.613 149.751C449.663 151.499 453.296 154.088 456.27 157.348C459.243 160.607 461.489 164.461 462.859 168.655C464.229 172.849 464.691 177.286 464.215 181.672Z" fill="#3C50E0"/>
<g opacity="0.5">
<path d="M464.215 181.672L460.914 219.449C460.743 221.118 459.966 222.667 458.73 223.803C457.494 224.939 455.886 225.582 454.207 225.612C453.418 225.626 452.634 225.472 451.909 225.16C451.183 224.848 450.533 224.385 450 223.802C449.467 223.219 449.064 222.529 448.818 221.779C448.573 221.028 448.489 220.234 448.574 219.449L451.848 181.672C452.153 178.855 451.855 176.005 450.975 173.311C450.094 170.617 448.651 168.142 446.74 166.048C444.83 163.955 442.496 162.292 439.894 161.169C437.292 160.047 434.481 159.49 431.648 159.536H418.181C412.157 159.65 406.384 161.965 401.95 166.042C397.516 170.12 394.727 175.68 394.11 181.672L392.784 197.101H380.457L381.783 181.672C383.439 162.665 400.26 147.209 419.254 147.209H432.774C437.185 147.137 441.562 148.003 445.613 149.751C449.663 151.499 453.296 154.088 456.27 157.348C459.243 160.607 461.489 164.461 462.859 168.655C464.229 172.849 464.691 177.286 464.215 181.672Z" fill="white"/>
</g>
<path d="M465.103 218.07L458.674 291.688C458.441 293.971 457.378 296.088 455.688 297.64C453.997 299.191 451.796 300.068 449.502 300.105H375.884C374.806 300.125 373.736 299.914 372.745 299.488C371.754 299.062 370.866 298.43 370.139 297.633C369.411 296.837 368.862 295.895 368.527 294.87C368.192 293.845 368.079 292.76 368.196 291.688L374.638 218.07C374.786 216.603 375.279 215.19 376.076 213.949C376.873 212.707 377.951 211.672 379.224 210.926C380.606 210.08 382.19 209.622 383.81 209.6H457.415C458.919 209.592 460.394 210.01 461.67 210.807C462.861 211.579 463.813 212.667 464.419 213.95C465.026 215.233 465.262 216.66 465.103 218.07Z" fill="#3C50E0"/>
<path d="M388.555 250.227L407.682 279.666L470.762 216.586C470.86 216.469 470.912 216.321 470.91 216.169C470.907 216.016 470.851 215.87 470.749 215.756C470.648 215.642 470.51 215.568 470.359 215.548C470.208 215.527 470.055 215.562 469.927 215.645L409.816 262.766L398.457 244.461L388.555 250.227Z" fill="white"/>
<path d="M87.3373 107.855H39.381C37.162 107.815 35.0347 106.964 33.4008 105.462C31.767 103.96 30.7398 101.911 30.5134 99.7037L26.3646 51.7738C26.2495 50.7359 26.357 49.6854 26.68 48.6924C27.003 47.6994 27.5341 46.7866 28.2379 46.0152C28.9416 45.2437 29.8018 44.6312 30.7611 44.2185C31.7203 43.8058 32.7566 43.6025 33.8006 43.622H81.704C83.9146 43.6722 86.0306 44.5285 87.6539 46.0298C89.2773 47.5311 90.296 49.5739 90.5185 51.7738L94.7071 99.6772C94.8255 100.711 94.7227 101.759 94.4054 102.751C94.0881 103.742 93.5635 104.655 92.8666 105.428C92.1697 106.202 91.3163 106.818 90.363 107.237C89.4097 107.655 88.3784 107.866 87.3373 107.855Z" fill="#3C50E0"/>
<path opacity="0.8" d="M87.3373 107.855H39.381C37.162 107.815 35.0347 106.964 33.4008 105.462C31.767 103.96 30.7398 101.911 30.5134 99.7037L26.3646 51.7738C26.2495 50.7359 26.357 49.6854 26.68 48.6924C27.003 47.6994 27.5341 46.7866 28.2379 46.0152C28.9416 45.2437 29.8018 44.6312 30.7611 44.2185C31.7203 43.8058 32.7566 43.6025 33.8006 43.622H81.704C83.9146 43.6722 86.0306 44.5285 87.6539 46.0298C89.2773 47.5311 90.296 49.5739 90.5185 51.7738L94.7071 99.6772C94.8255 100.711 94.7227 101.759 94.4054 102.751C94.0881 103.742 93.5635 104.655 92.8666 105.428C92.1697 106.202 91.3163 106.818 90.363 107.237C89.4097 107.655 88.3784 107.866 87.3373 107.855Z" fill="white"/>
<path d="M30.5396 80.5768C30.5396 80.5768 47.5721 56.8637 60.1113 57.4734C72.6505 58.0831 93.4872 80.0068 93.4872 80.0068C93.4872 80.0068 62.7756 96.1381 30.5396 80.5768Z" fill="white"/>
<path d="M31.0829 80.9347L30.0093 80.1659C30.6985 79.1983 46.9358 56.7709 59.6341 56.7709H60.151C72.8227 57.3807 93.1028 78.6151 93.9644 79.5164L93.01 80.431C92.7979 80.2189 72.2263 58.6796 60.0847 58.0964H59.6341C47.5721 58.1229 31.242 80.7359 31.0829 80.9347Z" fill="#263238"/>
<path d="M28.7763 81.4118C26.2048 81.4118 22.8646 80.4575 21.6849 76.8256C21.6305 76.6586 21.6447 76.4769 21.7242 76.3204C21.8037 76.1638 21.9421 76.0452 22.1091 75.9906C22.1917 75.9618 22.2792 75.95 22.3665 75.9559C22.4537 75.9618 22.5389 75.9852 22.6169 76.0248C22.6949 76.0644 22.7641 76.1194 22.8203 76.1864C22.8765 76.2534 22.9186 76.3311 22.9441 76.4147C24.4684 81.107 30.1681 79.9803 30.4066 79.9273C30.5785 79.8957 30.756 79.9318 30.9018 80.0282C31.0476 80.1246 31.1504 80.2737 31.1887 80.4442C31.2061 80.5295 31.2066 80.6174 31.19 80.7029C31.1735 80.7884 31.1402 80.8697 31.0922 80.9424C31.0442 81.015 30.9824 81.0774 30.9102 81.1261C30.8381 81.1749 30.757 81.2089 30.6717 81.2263C30.0475 81.3498 29.4126 81.412 28.7763 81.4118Z" fill="#263238"/>
<path d="M38.8898 71.232C38.7419 71.2349 38.5973 71.1883 38.4789 71.0995C38.2801 70.9404 33.5746 67.3086 32.3817 63.6104C32.3273 63.4435 32.3414 63.2617 32.421 63.1052C32.5005 62.9486 32.6389 62.83 32.8058 62.7754C32.9729 62.7246 33.1531 62.7404 33.3087 62.8194C33.4644 62.8985 33.5834 63.0347 33.6409 63.1995C34.7145 66.5 39.2345 70.0126 39.2875 70.0391C39.4261 70.1465 39.5164 70.3045 39.5388 70.4784C39.5611 70.6523 39.5137 70.8279 39.4068 70.9669C39.3464 71.0475 39.2685 71.1132 39.1789 71.1592C39.0893 71.2051 38.9905 71.23 38.8898 71.232Z" fill="#263238"/>
<path d="M48.6194 62.2054C48.4459 62.1954 48.2825 62.1202 48.1621 61.9949C48.0416 61.8695 47.973 61.7033 47.9699 61.5294C47.1959 58.6424 46.2351 55.8087 45.0936 53.0463C44.7622 52.1715 44.5236 51.5352 44.4706 51.3762C44.4442 51.2918 44.435 51.2029 44.4435 51.1149C44.4519 51.0269 44.478 50.9415 44.5199 50.8636C44.5619 50.7858 44.6191 50.7172 44.688 50.6618C44.7569 50.6064 44.8363 50.5654 44.9213 50.5411C45.0048 50.5167 45.0924 50.5091 45.1789 50.5185C45.2654 50.528 45.3492 50.5544 45.4255 50.5962C45.5018 50.6381 45.5692 50.6945 45.6237 50.7624C45.6781 50.8303 45.7187 50.9082 45.7431 50.9918C45.7431 51.1508 46.0214 51.734 46.3263 52.5691C48.182 57.4337 49.3219 60.6281 49.2954 61.556C49.2955 61.6435 49.2779 61.7302 49.2436 61.8108C49.2093 61.8914 49.1591 61.9642 49.0959 62.0248C49.0328 62.0855 48.958 62.1328 48.8761 62.1638C48.7942 62.1949 48.7069 62.209 48.6194 62.2054Z" fill="#263238"/>
<path d="M60.1113 58.1361C59.9461 58.1309 59.7883 58.0664 59.6666 57.9545C59.545 57.8426 59.4676 57.6906 59.4486 57.5264L58.5207 46.9225C58.5049 46.7467 58.5596 46.5718 58.6727 46.4364C58.7858 46.3009 58.9481 46.2159 59.1238 46.2001C59.2996 46.1842 59.4745 46.2389 59.6099 46.352C59.7454 46.4651 59.8304 46.6274 59.8462 46.8032L60.7741 57.4866C60.7854 57.6597 60.7299 57.8305 60.6189 57.9637C60.5078 58.0969 60.3499 58.1824 60.1776 58.2024L60.1113 58.1361Z" fill="#263238"/>
<path d="M95.4753 80.6828C94.8269 80.686 94.1794 80.6327 93.5401 80.5237C93.4548 80.5063 93.3738 80.4723 93.3016 80.4236C93.2295 80.3749 93.1676 80.3124 93.1196 80.2398C93.0716 80.1672 93.0384 80.0858 93.0219 80.0003C93.0053 79.9149 93.0058 79.827 93.0232 79.7417C93.0373 79.6561 93.0688 79.5742 93.1157 79.5012C93.1626 79.4282 93.2239 79.3656 93.2959 79.3172C93.3679 79.2688 93.4491 79.2356 93.5344 79.2197C93.6197 79.2038 93.7074 79.2055 93.792 79.2248C93.792 79.2248 97.0394 79.8477 99.0277 78.4427C99.453 78.1332 99.8077 77.7367 100.068 77.2797C100.329 76.8227 100.489 76.3154 100.539 75.7917C100.552 75.7047 100.582 75.6211 100.627 75.5457C100.673 75.4703 100.732 75.4045 100.803 75.3522C100.874 75.2999 100.954 75.262 101.04 75.2408C101.125 75.2195 101.214 75.2153 101.301 75.2284C101.388 75.2414 101.472 75.2715 101.547 75.3169C101.622 75.3622 101.688 75.422 101.74 75.4928C101.793 75.5636 101.831 75.644 101.852 75.7294C101.873 75.8148 101.877 75.9035 101.864 75.9905C101.784 76.688 101.559 77.361 101.203 77.966C100.846 78.571 100.367 79.0946 99.7964 79.5031C98.5084 80.3241 97.0018 80.7354 95.4753 80.6828Z" fill="#263238"/>
<path d="M83.5727 70.5295C83.4794 70.5302 83.3872 70.5104 83.3024 70.4714C83.2177 70.4325 83.1425 70.3754 83.0823 70.3042C83.0202 70.2426 82.9709 70.1693 82.9372 70.0885C82.9036 70.0078 82.8862 69.9211 82.8862 69.8336C82.8862 69.7462 82.9036 69.6595 82.9372 69.5788C82.9709 69.498 83.0202 69.4247 83.0823 69.3631C83.0823 69.3631 87.0588 65.8638 87.4829 62.6031C87.5123 62.4305 87.6074 62.2761 87.7483 62.1723C87.8892 62.0684 88.0649 62.0233 88.2384 62.0464C88.3247 62.0593 88.4075 62.0891 88.4821 62.1341C88.5568 62.1791 88.6219 62.2384 88.6736 62.3086C88.7253 62.3788 88.7626 62.4585 88.7835 62.5431C88.8044 62.6278 88.8083 62.7157 88.7952 62.8019C88.2384 66.5398 84.1294 70.1982 83.9571 70.3572C83.8535 70.4585 83.7172 70.5196 83.5727 70.5295Z" fill="#263238"/>
<path d="M72.372 62.8284H72.2527C72.08 62.7961 71.9266 62.6977 71.8252 62.5542C71.7237 62.4107 71.6821 62.2333 71.7093 62.0596C71.7093 61.9801 73.1673 53.4572 73.4324 51.7075C73.4455 51.6205 73.4755 51.5369 73.5209 51.4615C73.5663 51.3861 73.6261 51.3203 73.6968 51.268C73.7676 51.2157 73.848 51.1779 73.9334 51.1566C74.0188 51.1354 74.1075 51.1311 74.1946 51.1442C74.2816 51.1572 74.3652 51.1873 74.4406 51.2327C74.516 51.2781 74.5818 51.3378 74.6341 51.4086C74.6864 51.4794 74.7243 51.5598 74.7455 51.6452C74.7668 51.7306 74.771 51.8193 74.7579 51.9064C74.4928 53.6693 73.048 62.2054 73.0348 62.285C73.0065 62.4394 72.9244 62.5787 72.8031 62.6782C72.6817 62.7778 72.529 62.831 72.372 62.8284Z" fill="#263238"/>
<path d="M72.7611 83.3535C78.2485 77.6213 77.6214 68.1155 71.3603 62.1219C65.0993 56.1282 55.5752 55.9163 50.0878 61.6485C44.6003 67.3808 45.2275 76.8866 51.4885 82.8802C57.7496 88.8739 67.2737 89.0858 72.7611 83.3535Z" fill="#3C50E0"/>
<path opacity="0.3" d="M67.6395 72.4913C67.6593 72.1558 67.6593 71.8194 67.6395 71.4839C67.4615 69.7558 66.6565 68.1528 65.3766 66.978C64.0968 65.8032 62.4309 65.138 60.6939 65.1083C59.8775 65.094 59.0674 65.2538 58.3175 65.5769C57.5677 65.8999 56.8951 66.379 56.3447 66.9821C55.7943 67.5852 55.3785 68.2985 55.1251 69.0747C54.8717 69.8509 54.7864 70.6722 54.875 71.4839C54.8969 71.8258 54.9592 72.164 55.0606 72.4913H46.4183C46.2071 70.58 46.4056 68.6456 47.0006 66.817C47.5956 64.9884 48.5735 63.3076 49.8691 61.8866C51.1647 60.4656 52.7482 59.337 54.5142 58.5761C56.2802 57.8151 58.188 57.4392 60.1107 57.4734C64.1989 57.5489 68.1181 59.118 71.1289 61.8846C74.1397 64.6512 76.0339 68.424 76.454 72.4913H67.6395Z" fill="black"/>
<path opacity="0.7" d="M67.6266 71.4839C67.6464 71.8194 67.6464 72.1557 67.6266 72.4912C67.5313 73.9667 66.8703 75.3484 65.7813 76.3485C64.6923 77.3486 63.2594 77.8899 61.7812 77.8595C60.223 77.8304 58.7178 77.2888 57.4983 76.3185C56.2788 75.3481 55.4129 74.0031 55.0344 72.4912C54.9331 72.1639 54.8708 71.8258 54.8489 71.4839C54.7603 70.6721 54.8456 69.8509 55.099 69.0747C55.3524 68.2985 55.7681 67.5851 56.3186 66.982C56.869 66.3789 57.5415 65.8999 58.2914 65.5768C59.0413 65.2538 59.8514 65.094 60.6678 65.1082C62.4071 65.1348 64.0762 65.7985 65.3588 66.9736C66.6414 68.1487 67.4483 69.7535 67.6266 71.4839Z" fill="black"/>
<path opacity="0.7" d="M71.0866 65.2276C71.1582 65.8892 71.0881 66.5585 70.8812 67.191C70.6743 67.8235 70.3351 68.4048 69.8863 68.8962C69.4376 69.3876 68.8894 69.7779 68.2782 70.0413C67.667 70.3046 67.0068 70.4349 66.3414 70.4235C64.9283 70.3954 63.5743 69.8517 62.5343 68.8947C61.4943 67.9377 60.84 66.6334 60.6948 65.2276C60.621 64.5655 60.6895 63.8953 60.8956 63.2619C61.1018 62.6284 61.4408 62.0462 61.89 61.5543C62.3393 61.0625 62.8883 60.6721 63.5006 60.4095C64.1128 60.1469 64.774 60.0181 65.44 60.0316C66.8539 60.0569 68.2095 60.5997 69.2501 61.5572C70.2908 62.5148 70.9441 63.8206 71.0866 65.2276Z" fill="white"/>
<path d="M50.5677 37.6971H45.3452V39.0225H50.5677V37.6971Z" fill="#3C50E0"/>
<path d="M73.0082 37.6971H55.9756V39.0225H73.0082V37.6971Z" fill="#3C50E0"/>
<path d="M291.464 134.816L291.914 135.359L292.524 136.062C292.962 136.526 293.386 137.016 293.85 137.467C294.764 138.421 295.758 139.349 296.766 140.29C298.779 142.147 300.889 143.894 303.088 145.526C305.328 147.196 307.688 148.72 310.047 150.231C311.373 150.947 312.46 151.703 313.706 152.392L316.582 153.983C317 154.167 317.47 154.195 317.907 154.062C318.835 153.784 324.164 148.508 325.86 146.547C329.625 142.239 335.324 136.566 338.4 131.741L341.833 136.473C339.663 142.384 336.783 148.01 333.257 153.227C331.36 156.048 329.086 158.594 326.497 160.796C324.942 162.105 323.188 163.157 321.301 163.911C318.908 164.865 316.281 165.064 313.772 164.481C313.123 164.322 312.489 164.11 311.876 163.844L310.683 163.327L308.536 162.346C307.091 161.71 305.7 160.941 304.295 160.239C301.485 158.74 298.76 157.089 296.13 155.295C293.478 153.472 290.933 151.498 288.508 149.383C287.249 148.283 286.122 147.17 284.969 145.963C284.399 145.367 283.816 144.744 283.259 144.094L282.437 143.087C282.132 142.716 281.907 142.438 281.496 141.868L291.464 134.816Z" fill="#FFB573"/>
<path d="M337.856 132.47L344.006 119.321L349.878 129.845C349.878 129.845 346.021 136.473 341.832 136.473L337.856 132.47Z" fill="#FFB573"/>
<path d="M350.978 113.86L357.181 121.839L349.931 129.832L344.059 119.321L350.978 113.86Z" fill="#FFB573"/>
<path d="M348.817 133.464H358.586C358.862 133.462 359.127 133.358 359.33 133.172C359.533 132.986 359.66 132.731 359.687 132.457L361.715 109.035C361.729 108.882 361.712 108.727 361.663 108.581C361.615 108.435 361.536 108.301 361.432 108.188C361.329 108.074 361.202 107.983 361.061 107.922C360.921 107.86 360.768 107.828 360.614 107.829H350.859C350.581 107.831 350.314 107.937 350.111 108.126C349.907 108.315 349.782 108.573 349.759 108.85L347.704 132.258C347.691 132.412 347.71 132.566 347.761 132.712C347.811 132.858 347.891 132.992 347.995 133.106C348.1 133.219 348.227 133.31 348.369 133.371C348.51 133.433 348.663 133.464 348.817 133.464Z" fill="#3C50E0"/>
<path opacity="0.3" d="M348.923 131.118H358.705L360.535 110.188H350.753L348.923 131.118Z" fill="white"/>
<path d="M348.287 128.149L350.024 127.261C350.908 126.811 351.724 126.24 352.45 125.564L352.768 124.411C352.582 124.104 352.303 123.865 351.971 123.728C351.64 123.592 351.273 123.567 350.925 123.655L349.48 124.053L342.309 124.596L342.137 127.619L344.231 130.853H344.947C345.737 130.881 346.509 130.622 347.123 130.126C347.737 129.629 348.15 128.927 348.287 128.149Z" fill="#FFB573"/>
<path d="M278.951 122.025C283.922 121.124 318.981 151.517 318.981 151.517L308.589 166.76C308.589 166.76 270.256 140.065 271.475 133.623C272.655 126.85 271.714 123.35 278.951 122.025Z" fill="#263238"/>
<path opacity="0.2" d="M283.378 131.741L282.994 147.647C286.97 150.735 301.339 161.75 301.339 161.75L283.378 131.741Z" fill="black"/>
<path d="M255.582 437.903L267.339 439.057L271.077 411.791L259.307 410.638L255.582 437.903Z" fill="#FFB573"/>
<path d="M139.827 277.916L136.818 289.369L162.254 300.33L167.53 288.706L139.827 277.916Z" fill="#FFB573"/>
<path d="M275.756 441.469C276.768 441.593 277.792 441.369 278.659 440.833C278.846 440.67 278.992 440.465 279.084 440.234C279.176 440.004 279.212 439.754 279.189 439.507C279.189 439.352 279.147 439.201 279.068 439.068C278.988 438.935 278.875 438.826 278.739 438.752C277.32 437.903 272.522 440.183 271.979 440.435C271.927 440.459 271.884 440.499 271.855 440.549C271.827 440.599 271.814 440.656 271.82 440.713C271.827 440.772 271.853 440.827 271.893 440.87C271.934 440.912 271.987 440.941 272.045 440.952C273.264 441.237 274.506 441.41 275.756 441.469ZM277.89 439.096C278.075 439.082 278.26 439.124 278.421 439.216C278.476 439.245 278.523 439.288 278.556 439.342C278.589 439.396 278.606 439.458 278.606 439.521C278.62 439.686 278.595 439.853 278.533 440.007C278.471 440.162 278.373 440.299 278.248 440.409C277.519 441.032 275.597 441.085 272.946 440.581C274.51 439.8 276.195 439.294 277.93 439.083L277.89 439.096Z" fill="#3C50E0"/>
<path d="M272.097 440.899H272.203C273.635 440.303 276.511 437.837 276.326 436.485C276.274 436.25 276.143 436.04 275.955 435.891C275.766 435.741 275.532 435.661 275.292 435.663C275.016 435.612 274.732 435.621 274.46 435.69C274.187 435.758 273.933 435.885 273.714 436.061C272.19 437.241 271.832 440.435 271.806 440.554C271.793 440.603 271.793 440.653 271.804 440.702C271.816 440.75 271.839 440.795 271.872 440.833C271.903 440.859 271.939 440.878 271.978 440.89C272.017 440.901 272.057 440.904 272.097 440.899ZM275.027 436.167H275.186C275.703 436.246 275.729 436.445 275.729 436.512C275.848 437.32 273.887 439.282 272.415 440.064C272.556 438.72 273.123 437.457 274.033 436.459C274.327 436.246 274.693 436.155 275.053 436.207L275.027 436.167Z" fill="#3C50E0"/>
<path d="M266.756 434.311L256.153 434.762C255.924 434.764 255.704 434.85 255.536 435.005C255.367 435.159 255.261 435.37 255.238 435.597L252.693 450.403C252.679 450.655 252.714 450.907 252.798 451.145C252.882 451.383 253.012 451.601 253.181 451.789C253.35 451.976 253.554 452.128 253.782 452.236C254.01 452.344 254.257 452.406 254.509 452.418H254.721C259.347 452.179 261.574 451.834 267.432 451.636C271.025 451.516 282.013 452.815 286.917 451.702C291.822 450.588 290.894 445.724 288.786 445.764C281.973 445.896 274.113 441.456 270.229 436.26C269.553 435.822 267.499 434.272 266.756 434.311Z" fill="#263238"/>
<path d="M142.226 290.866L147.634 281.681C147.757 281.486 147.801 281.253 147.76 281.027C147.718 280.801 147.593 280.599 147.409 280.461L136.381 270.295C135.971 270.005 135.464 269.888 134.969 269.967C134.473 270.046 134.029 270.316 133.73 270.719L133.61 270.904C131.304 274.881 130.389 276.975 127.38 281.999C125.525 285.087 118.447 293.663 116.777 298.342C115.106 303.021 119.64 304.97 120.753 303.14C124.345 297.335 132.338 293.146 138.833 292.642C139.456 292.404 141.855 291.516 142.226 290.866Z" fill="#263238"/>
<path opacity="0.2" d="M271.077 411.791L269.155 425.855L257.385 424.701L259.293 410.651L271.077 411.791Z" fill="black"/>
<path opacity="0.2" d="M175.35 291.542L169.916 303.803L153.533 296.566L157.708 284.888L175.35 291.542Z" fill="black"/>
<path d="M286.466 136.009C293.187 147.435 284.969 157.071 278.103 191.216L233.805 191.335C234.52 172.937 234.441 158.065 226.594 121.866C226.39 120.974 226.391 120.048 226.595 119.156C226.8 118.264 227.203 117.43 227.776 116.716C228.348 116.003 229.074 115.427 229.9 115.034C230.726 114.64 231.63 114.438 232.545 114.443C236.204 114.443 240.803 114.562 245.482 115.04C252.862 115.643 260.192 116.755 267.419 118.367C271.339 119.312 275.191 120.516 278.951 121.972C281.231 122.741 283.975 128.944 286.466 136.009Z" fill="#263238"/>
<path d="M279.746 193.522C279.746 193.522 304.626 265.457 304.029 300.052C303.685 319.868 302.187 356.796 296.209 382.763C291.331 403.971 271.449 417.491 271.449 417.491L255.543 416.55C255.543 416.55 246.927 384.208 248.425 371.337C251.407 345.715 260.248 326.469 259.174 302.942C257.478 264.423 246.079 192.926 246.079 192.926L279.746 193.522Z" fill="#3C50E0"/>
<path d="M252.348 420.698L274.815 422.024L276.856 415.277L251.751 412.958L252.348 420.698Z" fill="#263238"/>
<path opacity="0.2" d="M255.185 338.849C255.185 338.849 255.185 338.717 255.317 338.73C269.434 340.055 279.176 319.736 276.856 291.913L269.367 221L255.185 338.849Z" fill="black"/>
<path d="M268.585 192.926C268.585 192.926 288.362 319.418 247.245 333.653C225.547 341.871 207.295 332.964 185.676 323.394C173.176 317.867 157.562 302.902 157.562 302.902L163.566 286.559C174.366 283.638 185.666 283.069 196.704 284.888C217.779 288.149 218.667 294.167 226.156 289.62C241.903 250.704 214.81 219.939 233.221 192.859L268.585 192.926Z" fill="#3C50E0"/>
<path d="M164.746 283.457L156.714 304.651L162.626 309.171L172.169 283.947L164.746 283.457Z" fill="#263238"/>
<path d="M161.432 169.159C159.431 172.115 149.277 170.114 149.277 170.114L147.117 157.535L159.59 162.532L161.432 169.159Z" fill="#FFB573"/>
<path d="M149.635 156.885L151.57 169.955L144.081 171.068C143.676 171.105 143.27 170.99 142.945 170.745C142.619 170.5 142.396 170.143 142.319 169.743L139.442 160.464C139.393 160.248 139.429 160.022 139.543 159.832C139.656 159.642 139.839 159.503 140.052 159.444L149.635 156.885Z" fill="#FFB573"/>
<path d="M146.282 162.81L150.55 163.566L154.593 160.531L153.029 159.417C151.969 158.662 151.223 157.544 150.934 156.276C150.634 154.947 150.452 153.594 150.391 152.233V151.782C150.34 151.383 150.159 151.011 149.877 150.723C149.594 150.436 149.226 150.249 148.827 150.192L147.766 150.974C147.104 152.419 147.581 154.102 147.501 155.229L147.329 157.416L145.619 158.158L146.282 162.81Z" fill="#FFB573"/>
<path d="M228.728 119.374L203.65 153.837L157.589 162.93V170.485C157.589 170.485 200.879 173.693 210.609 168.033C220.338 162.373 236.655 128.043 236.655 128.043L228.728 119.374Z" fill="#FFB573"/>
<path d="M228.436 53.0993C217.912 49.5735 205.704 56.1081 200.892 66.1024C196.081 76.0966 197.764 88.3574 203.185 98.0335C204.816 100.963 206.764 103.72 208.103 106.782C209.591 109.817 209.916 113.292 209.017 116.551C207.931 119.719 206.817 121.747 202.894 121.243C202.894 121.243 202.894 119.069 204.391 119.334C204.391 119.334 201.21 121.097 199.964 119.944C201.409 122.171 205.266 121.362 206.499 119.003C208.341 115.49 204.948 110.732 200.972 110.772C196.995 110.811 193.761 114.841 193.894 118.804C194.059 120.786 194.765 122.685 195.933 124.295C197.101 125.905 198.688 127.164 200.521 127.937C199.447 128.114 198.344 127.93 197.385 127.415C196.426 126.899 195.664 126.081 195.219 125.087C197.022 129.806 202.907 131.887 207.878 130.959C212.848 130.031 217.05 126.85 220.947 123.629C226.249 119.281 231.67 113.78 231.551 106.981C231.432 101.904 228.171 97.5431 225.427 93.2617C222.683 88.9804 220.284 83.7579 222.034 78.9994C223.505 74.9567 227.508 72.5178 231.034 70.0523C233.579 68.2894 238.748 64.3527 238.139 60.6281C237.516 57.0757 231.418 54.0934 228.436 53.0993Z" fill="#263238"/>
<path d="M204.723 171.068L197.777 152.684L199.368 152.816C200.655 152.924 201.945 152.659 203.086 152.052C204.226 151.446 205.167 150.524 205.797 149.396C211.099 139.959 224.791 116.007 228.648 114.814C234.149 113.184 239.809 117.585 241.903 124.093C243.48 128.878 227.323 149.396 219.873 161.061C213.259 171.386 204.723 171.068 204.723 171.068Z" fill="#263238"/>
<path d="M136.977 296.911V297.056C137.075 297.311 137.235 297.537 137.444 297.714C137.653 297.89 137.902 298.01 138.17 298.064C138.331 298.114 138.502 298.122 138.667 298.088C138.832 298.053 138.985 297.976 139.111 297.865C140.225 296.844 139.509 292.563 139.443 292.139C139.435 292.084 139.411 292.032 139.373 291.992C139.335 291.952 139.285 291.924 139.23 291.913C139.179 291.907 139.127 291.913 139.078 291.932C139.03 291.95 138.986 291.98 138.952 292.019C138.051 293.292 136.619 295.559 136.977 296.911ZM139.018 292.934C139.257 294.631 139.363 296.911 138.74 297.467C138.675 297.503 138.602 297.522 138.528 297.522C138.454 297.522 138.381 297.503 138.316 297.467C138.138 297.434 137.971 297.356 137.832 297.24C137.693 297.123 137.585 296.974 137.521 296.804C137.282 296.089 137.786 294.631 139.018 292.908V292.934Z" fill="#3C50E0"/>
<path d="M139.032 292.696C139.376 294.127 140.728 296.566 141.921 296.858C142.139 296.901 142.364 296.87 142.562 296.769C142.759 296.668 142.916 296.503 143.008 296.301C143.112 296.112 143.173 295.902 143.186 295.687C143.2 295.471 143.166 295.256 143.088 295.055C142.544 293.411 139.416 292.059 139.283 291.993C139.241 291.97 139.193 291.958 139.144 291.958C139.096 291.958 139.048 291.97 139.005 291.993C138.966 292.024 138.936 292.065 138.917 292.112C138.899 292.158 138.892 292.208 138.899 292.258C138.932 292.407 138.976 292.553 139.032 292.696ZM142.637 295.346C142.664 295.464 142.667 295.585 142.647 295.703C142.626 295.822 142.582 295.935 142.518 296.036C142.345 296.354 142.173 296.354 142.04 296.327C141.232 296.168 139.999 294.167 139.601 292.775C140.622 293.292 142.252 294.26 142.597 295.267C142.588 295.293 142.588 295.321 142.597 295.346H142.637Z" fill="#3C50E0"/>
<path d="M233.645 189.095L232.413 193.403C232.254 193.734 232.638 194.079 233.195 194.065H278.924C279.362 194.065 279.72 193.84 279.746 193.575L280.17 189.267C280.17 188.976 279.826 188.71 279.348 188.724H234.414C234.265 188.712 234.115 188.74 233.98 188.806C233.845 188.871 233.729 188.971 233.645 189.095Z" fill="#3C50E0"/>
<path opacity="0.5" d="M233.645 189.095L232.413 193.403C232.254 193.734 232.638 194.079 233.195 194.065H278.924C279.362 194.065 279.72 193.84 279.746 193.575L280.17 189.267C280.17 188.976 279.826 188.71 279.348 188.724H234.414C234.265 188.712 234.115 188.74 233.98 188.806C233.845 188.871 233.729 188.971 233.645 189.095Z" fill="white"/>
<path d="M242.42 194.463H241.094C240.843 194.463 240.631 194.331 240.657 194.172L241.253 188.565C241.253 188.406 241.505 188.273 241.77 188.273H243.096C243.348 188.273 243.547 188.406 243.533 188.578L242.937 194.172C242.857 194.331 242.619 194.476 242.42 194.463Z" fill="#3C50E0"/>
<path d="M275.385 194.463H274.059C273.821 194.463 273.609 194.331 273.635 194.172L274.232 188.578C274.232 188.406 274.47 188.273 274.722 188.273H276.047C276.299 188.273 276.511 188.406 276.485 188.565L275.888 194.158C275.862 194.331 275.65 194.463 275.385 194.463Z" fill="#3C50E0"/>
<path d="M260.261 194.437H258.936C258.684 194.437 258.472 194.304 258.498 194.145L259.095 188.552C259.095 188.379 259.347 188.247 259.599 188.247H260.924C261.176 188.247 261.375 188.379 261.361 188.538L260.752 194.132C260.752 194.304 260.526 194.437 260.261 194.437Z" fill="#3C50E0"/>
<path d="M247.549 90.9156C248.955 98.1395 250.333 111.182 245.429 115.106C245.429 115.106 247.39 122.515 260.5 124.49C274.974 126.664 267.379 118.42 267.379 118.42C259.492 115.305 259.691 109.605 261.043 104.356L247.549 90.9156Z" fill="#FFB573"/>
<path d="M245.482 115.04C252.476 115.483 259.428 116.449 266.279 117.929L276.194 120.885C277.956 124.437 275.067 131.741 266.769 133.133C266.769 133.133 245.866 136.009 239.703 114.483L245.482 115.04Z" fill="#FFB573"/>
<path opacity="0.2" d="M253.024 96.4164L260.977 104.369C260.642 105.601 260.424 106.861 260.327 108.134C257.305 107.246 252.454 103.919 252.123 100.738C252.126 99.2509 252.433 97.7805 253.024 96.4164Z" fill="black"/>
<path d="M238.695 81.7962C242.248 93.0099 243.494 97.8347 250.771 102.249C261.613 108.876 274.63 102.09 274.497 90.054C274.391 79.2115 268.625 62.6958 256.311 60.8932C253.605 60.4875 250.839 60.7812 248.278 61.7464C245.717 62.7117 243.445 64.3162 241.68 66.4075C239.914 68.4987 238.713 71.007 238.19 73.6937C237.668 76.3803 237.842 79.156 238.695 81.7564V81.7962Z" fill="#FFB573"/>
<path d="M265.458 80.0466C266.711 82.0148 268.232 83.7992 269.977 85.3486C269.569 85.7905 269.07 86.138 268.513 86.3669C267.957 86.5959 267.357 86.7007 266.756 86.6741L265.458 80.0466Z" fill="#ED893E"/>
<path d="M264.198 92.6653C264.646 92.6159 265.09 92.5271 265.523 92.4002C265.557 92.3923 265.589 92.3779 265.617 92.3577C265.646 92.3375 265.67 92.3119 265.688 92.2823C265.707 92.2528 265.719 92.2199 265.725 92.1855C265.731 92.1512 265.73 92.116 265.722 92.082C265.703 92.0125 265.658 91.9528 265.596 91.9158C265.534 91.8787 265.461 91.867 265.39 91.8832C264.259 92.1951 263.07 92.2377 261.919 92.0075C260.768 91.7773 259.687 91.2808 258.763 90.5577C258.708 90.5035 258.635 90.4731 258.558 90.4731C258.481 90.4731 258.407 90.5035 258.352 90.5577C258.326 90.5836 258.305 90.6146 258.29 90.6487C258.276 90.6829 258.269 90.7195 258.269 90.7566C258.269 90.7936 258.276 90.8302 258.29 90.8644C258.305 90.8985 258.326 90.9295 258.352 90.9554C259.166 91.6104 260.102 92.0986 261.105 92.392C262.108 92.6854 263.159 92.7783 264.198 92.6653Z" fill="#263238"/>
<path d="M234.838 59.4086C233.377 60.3534 232.165 61.635 231.302 63.1458C230.439 64.6566 229.952 66.3524 229.881 68.0906C229.821 68.7553 229.925 69.4246 230.186 70.0391C230.316 70.3431 230.525 70.6074 230.79 70.8052C231.055 71.003 231.368 71.1274 231.697 71.1658C232.704 71.1658 233.446 70.2644 234.003 69.4161L236.575 65.4396C237.633 64.1479 238.524 62.7271 239.226 61.2113C240.087 58.6001 236.416 58.4012 234.838 59.4086Z" fill="#3C50E0"/>
<path d="M236.098 62.0464C229.059 70.1849 225.905 92.705 246.529 98.9879C249.976 96.2574 244.409 91.2868 242.049 85.0039C240.498 80.8949 248.359 73.2203 251.42 70.0656C254.482 66.9109 257.306 62.3645 261.627 63.0935C262.724 63.4602 263.905 63.4925 265.02 63.1863C268.453 61.6355 266.783 59.581 265.02 58.1494C262.316 56.1483 259.097 54.9618 255.742 54.7296C252.122 54.3032 248.452 54.7444 245.036 56.0166C241.621 57.2889 238.557 59.3557 236.098 62.0464Z" fill="#263238"/>
<path d="M258.989 59.3158C267.273 66.2217 256.338 66.394 250.545 70.7681C244.991 74.9699 248.888 81.8492 239.49 85.0437C231.816 87.2838 230.04 85.9318 227.919 84.4472C230.547 83.9924 232.951 82.6811 234.756 80.7175C236.562 78.754 237.667 76.2485 237.9 73.5914C238.549 68.5545 249.524 51.3099 258.989 59.3158Z" fill="#263238"/>
<path d="M237.449 91.2205C238.747 93.09 240.727 94.3752 242.963 94.7993C245.933 95.3163 247.072 92.599 246.052 89.948C245.084 87.5621 242.393 84.4207 239.517 85.0967C238.528 85.3525 237.681 85.9903 237.162 86.87C236.642 87.7496 236.493 88.7994 236.747 89.7889C236.882 90.3086 237.121 90.7956 237.449 91.2205Z" fill="#FFB573"/>
<path d="M257.57 60.0183C259.174 64.1009 263.8 63.5574 267.22 67.8255C269.327 70.4765 273.463 62.2982 267.829 59.0772C262.196 55.8563 255.052 53.6295 257.57 60.0183Z" fill="#263238"/>
<path d="M252.693 77.2498C252.811 77.2625 252.93 77.2371 253.032 77.1775C253.135 77.1179 253.215 77.0271 253.263 76.9184C254.35 74.506 257.61 73.8963 257.637 73.8963C257.783 73.8643 257.91 73.7778 257.994 73.6546C258.078 73.5313 258.111 73.3807 258.088 73.2335C258.059 73.0898 257.974 72.9632 257.853 72.8813C257.731 72.7994 257.582 72.7688 257.438 72.7961C257.266 72.7961 253.554 73.5782 252.229 76.4942C252.17 76.6299 252.166 76.7832 252.218 76.9217C252.27 77.0602 252.374 77.1731 252.507 77.2365H252.693V77.2498Z" fill="#263238"/>
<path d="M269.924 72.3719C270.021 72.3789 270.118 72.3592 270.205 72.3147C270.291 72.2703 270.364 72.203 270.415 72.1201C270.457 72.0605 270.487 71.993 270.502 71.9216C270.518 71.8502 270.519 71.7764 270.505 71.7047C270.492 71.6329 270.464 71.5647 270.423 71.5039C270.383 71.4432 270.33 71.3913 270.269 71.3513C269.535 70.8427 268.689 70.5182 267.803 70.4052C266.917 70.2921 266.017 70.3939 265.179 70.7018C265.109 70.7291 265.046 70.7704 264.993 70.8233C264.94 70.8762 264.899 70.9395 264.871 71.0092C264.844 71.0789 264.831 71.1535 264.834 71.2284C264.837 71.3032 264.855 71.3766 264.887 71.4441C264.946 71.5791 265.055 71.6856 265.192 71.7403C265.328 71.7949 265.481 71.7933 265.617 71.7357C266.276 71.5053 266.981 71.4356 267.672 71.5324C268.364 71.6293 269.022 71.8898 269.593 72.2924C269.696 72.3425 269.809 72.3696 269.924 72.3719Z" fill="#263238"/>
<path d="M324.415 144.929L316.647 149.343L308.575 166.707C308.575 166.707 316.369 171.665 322.519 167.648C328.67 163.632 324.415 144.929 324.415 144.929Z" fill="#3C50E0"/>
<path opacity="0.5" d="M324.415 144.929L316.647 149.343L308.575 166.707C308.575 166.707 316.369 171.665 322.519 167.648C328.67 163.632 324.415 144.929 324.415 144.929Z" fill="white"/>
<path d="M188.592 150.298L197.778 152.949L206.486 170.962C206.486 170.962 199.488 177.444 191.906 171.254C186.233 166.562 188.592 150.298 188.592 150.298Z" fill="#3C50E0"/>
<g opacity="0.5">
<path d="M188.592 150.298L197.778 152.949L206.486 170.962C206.486 170.962 199.488 177.444 191.906 171.254C186.233 166.562 188.592 150.298 188.592 150.298Z" fill="white"/>
</g>
<path d="M269.394 76.8654C270.031 76.7461 270.72 77.4618 270.866 78.4427C271.011 79.4236 270.654 80.3249 270.017 80.4309C269.381 80.537 268.692 79.8345 268.546 78.8536C268.4 77.8727 268.758 76.9581 269.394 76.8654Z" fill="#263238"/>
<path d="M271.355 75.8978L269.115 76.998C270.467 77.9523 271.355 75.8978 271.355 75.8978Z" fill="#263238"/>
<path d="M258.326 79.1452C258.962 79.0259 259.651 79.7417 259.797 80.7226C259.943 81.7034 259.585 82.6048 258.949 82.7108C258.312 82.8169 257.623 82.1143 257.477 81.1335C257.332 80.1526 257.663 79.2645 258.326 79.1452Z" fill="#263238"/>
<path d="M260.261 78.1776L258.021 79.2778C259.373 80.2321 260.261 78.1776 260.261 78.1776Z" fill="#263238"/>
<path d="M202.204 129.859C200.956 129.866 199.719 129.632 198.559 129.169C194.45 127.486 192.542 123.218 193.257 117.439C193.28 117.265 193.372 117.107 193.511 117C193.65 116.893 193.826 116.846 194 116.869C194.086 116.878 194.17 116.906 194.247 116.949C194.323 116.992 194.389 117.049 194.443 117.119C194.496 117.188 194.534 117.267 194.556 117.352C194.578 117.436 194.583 117.525 194.57 117.611C193.88 122.741 195.497 126.505 199.01 127.937C201.049 128.634 203.256 128.669 205.315 128.036C207.375 127.403 209.181 126.134 210.476 124.411C213.803 119.984 212.716 113.701 207.533 107.179C193.96 90.1468 194.861 81.0937 196.783 73.936C199.567 63.5442 207.718 51.6412 230.782 53.9343C230.958 53.9519 231.119 54.0386 231.231 54.1753C231.343 54.312 231.396 54.4876 231.379 54.6633C231.361 54.8391 231.274 55.0007 231.138 55.1126C231.001 55.2244 230.825 55.2774 230.65 55.2598C208.527 53.0595 200.707 64.4057 198.056 74.2939C196.147 81.4516 195.405 89.8154 208.567 106.371C216.52 116.352 213.299 122.887 211.536 125.219C210.433 126.648 209.02 127.808 207.404 128.612C205.787 129.415 204.009 129.842 202.204 129.859Z" fill="#263238"/>
</svg>
