<svg width="157" height="30" viewBox="0 0 157 30" fill="none" xmlns="http://www.w3.org/2000/svg">
<g clip-path="url(#clip0_2009_5037)">
<mask id="mask0_2009_5037" style="mask-type:luminance" maskUnits="userSpaceOnUse" x="0" y="1" width="29" height="29">
<path d="M28.1592 1.88049H0.15918V29.8805H28.1592V1.88049Z" fill="white"/>
</mask>
<g mask="url(#mask0_2009_5037)">
<path d="M12.9591 5.88054C18.7028 5.88054 23.3591 10.5368 23.3591 16.2805C23.3591 22.0243 18.7028 26.6805 12.9591 26.6805C7.21532 26.6805 2.55908 22.0243 2.55908 16.2805C2.55908 10.5368 7.21532 5.88054 12.9591 5.88054Z" fill="white"/>
<path d="M28.1592 22.3806C28.1592 22.5034 28.1563 22.6259 28.1501 22.7483C28.144 22.8711 28.1349 22.9934 28.123 23.1156C28.111 23.2378 28.0959 23.3597 28.0781 23.4811C28.06 23.6023 28.039 23.7234 28.0151 23.8436C27.9912 23.964 27.9644 24.0839 27.9343 24.2029C27.9045 24.3219 27.8719 24.44 27.8363 24.5576C27.8007 24.6751 27.7622 24.7915 27.7208 24.9073C27.6794 25.0228 27.6353 25.1371 27.5884 25.2506C27.5414 25.364 27.4916 25.4763 27.439 25.5871C27.3865 25.698 27.3314 25.8077 27.2737 25.9159C27.2157 26.0241 27.1553 26.1311 27.0923 26.2361C27.0289 26.3414 26.9633 26.4452 26.8951 26.5473C26.8271 26.6494 26.7563 26.7498 26.6833 26.8483C26.6101 26.9469 26.5346 27.0435 26.4567 27.1386C26.3789 27.2333 26.2986 27.3263 26.2164 27.4171C26.1338 27.5081 26.0493 27.5971 25.9624 27.6837C25.8757 27.7706 25.7868 27.8551 25.6957 27.9377C25.605 28.0199 25.512 28.1002 25.4173 28.178C25.3221 28.2559 25.2256 28.3315 25.127 28.4047C25.0285 28.4776 24.9281 28.5484 24.826 28.6164C24.7239 28.6847 24.6201 28.7503 24.5148 28.8136C24.4098 28.8766 24.3028 28.937 24.1945 28.995C24.0864 29.0527 23.9767 29.1079 23.8658 29.1603C23.755 29.2129 23.6427 29.2627 23.5293 29.3097C23.4158 29.3567 23.3015 29.4007 23.186 29.4421C23.0701 29.4835 22.9538 29.522 22.8363 29.5576C22.7187 29.5932 22.6006 29.6259 22.4816 29.6556C22.3626 29.6857 22.2427 29.7125 22.1223 29.7364C22.0021 29.7603 21.881 29.7813 21.7597 29.7994C21.6384 29.8172 21.5165 29.8323 21.3943 29.8443C21.2721 29.8563 21.1498 29.8653 21.027 29.8715C20.9045 29.8776 20.7821 29.8805 20.6593 29.8805H7.6591C7.53631 29.8805 7.4138 29.8776 7.29131 29.8715C7.16852 29.8653 7.04631 29.8563 6.9241 29.8443C6.80189 29.8323 6.67997 29.8172 6.55864 29.7994C6.43731 29.7813 6.31626 29.7603 6.1961 29.7364C6.07564 29.7125 5.95576 29.6857 5.83676 29.6556C5.71776 29.6259 5.59964 29.5932 5.4821 29.5576C5.36456 29.522 5.24818 29.4835 5.13239 29.4421C5.01689 29.4007 4.90256 29.3567 4.7891 29.3097C4.67564 29.2627 4.56335 29.2129 4.45252 29.1603C4.34168 29.1079 4.23201 29.0527 4.1238 28.995C4.0156 28.937 3.90856 28.8766 3.80326 28.8136C3.69826 28.7503 3.59443 28.6847 3.49235 28.6164C3.39026 28.5484 3.28993 28.4776 3.19135 28.4047C3.09276 28.3315 2.99622 28.2559 2.90114 28.178C2.80635 28.1002 2.71331 28.0199 2.6226 27.9377C2.5316 27.8551 2.44264 27.7706 2.35601 27.6837C2.2691 27.5971 2.18452 27.5081 2.10197 27.4171C2.01972 27.3263 1.93952 27.2333 1.86164 27.1386C1.78376 27.0435 1.70822 26.9469 1.63501 26.8483C1.5621 26.7498 1.49122 26.6494 1.42326 26.5473C1.35501 26.4452 1.28939 26.3414 1.2261 26.2364C1.1631 26.1311 1.10272 26.0241 1.04468 25.9159C0.986932 25.8077 0.931805 25.698 0.879305 25.5871C0.826805 25.4763 0.77693 25.364 0.729972 25.2506C0.683013 25.1371 0.638972 25.0228 0.597555 24.9073C0.556138 24.7915 0.517638 24.6751 0.482055 24.5576C0.446472 24.44 0.413805 24.3219 0.384055 24.2029C0.354013 24.0839 0.32718 23.964 0.303263 23.8436C0.279346 23.7234 0.258346 23.6023 0.240263 23.4811C0.222471 23.3597 0.207305 23.2378 0.195346 23.1156C0.183388 22.9934 0.174346 22.8711 0.168221 22.7483C0.162096 22.6259 0.15918 22.5034 0.15918 22.3806V9.38041C0.15918 9.25762 0.162096 9.13512 0.168221 9.01262C0.174346 8.88983 0.183388 8.76762 0.195346 8.64541C0.207305 8.52321 0.222471 8.40129 0.240263 8.27995C0.258346 8.15862 0.279346 8.03757 0.303263 7.91741C0.32718 7.79695 0.354013 7.67708 0.384055 7.55808C0.413805 7.43908 0.446472 7.32095 0.482055 7.20341C0.517638 7.08587 0.556138 6.96949 0.597555 6.8537C0.638972 6.7382 0.683013 6.62387 0.729972 6.51041C0.77693 6.39695 0.826805 6.28466 0.879305 6.17383C0.931805 6.063 0.986932 5.95333 1.04468 5.84512C1.10272 5.73691 1.1631 5.62987 1.2261 5.52487C1.28939 5.41957 1.35501 5.31574 1.42326 5.21366C1.49122 5.11157 1.5621 5.01125 1.63501 4.91266C1.70822 4.81408 1.78376 4.71753 1.86164 4.62245C1.93952 4.52766 2.01972 4.43462 2.10197 4.34391C2.18452 4.25291 2.2691 4.16395 2.35601 4.07733C2.44264 3.99041 2.5316 3.90583 2.6226 3.82329C2.71331 3.74104 2.80635 3.66083 2.90114 3.58295C2.99622 3.50508 3.09276 3.42953 3.19135 3.35633C3.28993 3.28341 3.39026 3.21253 3.49235 3.14457C3.59443 3.07633 3.69826 3.0107 3.80356 2.94741C3.90856 2.88441 4.0156 2.82404 4.1238 2.766C4.23201 2.70825 4.34168 2.65312 4.45252 2.60062C4.56335 2.54812 4.67564 2.49824 4.7891 2.45129C4.90256 2.40433 5.01689 2.36029 5.13239 2.31887C5.24818 2.27745 5.36456 2.23895 5.4821 2.20337C5.59964 2.16779 5.71776 2.13512 5.83676 2.10537C5.95576 2.07533 6.07564 2.04849 6.1961 2.02458C6.31626 2.00066 6.43731 1.97966 6.55864 1.96158C6.68026 1.94378 6.80189 1.92862 6.9241 1.91666C7.04631 1.9047 7.16852 1.89566 7.29131 1.88953C7.4138 1.88341 7.53631 1.88049 7.6591 1.88049H20.6593C20.7821 1.88049 20.9045 1.88341 21.027 1.88953C21.1498 1.89566 21.2721 1.9047 21.3943 1.91666C21.5165 1.92862 21.6384 1.94378 21.7597 1.96158C21.881 1.97966 22.0021 2.00066 22.1223 2.02458C22.2427 2.04849 22.3626 2.07533 22.4816 2.10537C22.6006 2.13512 22.7187 2.16779 22.8363 2.20337C22.9538 2.23895 23.0701 2.27745 23.186 2.31887C23.3015 2.36029 23.4158 2.40433 23.5293 2.45129C23.6427 2.49824 23.755 2.54812 23.8658 2.60062C23.9767 2.65312 24.0864 2.70825 24.1945 2.766C24.3028 2.82404 24.4098 2.88441 24.5148 2.94741C24.6201 3.0107 24.7239 3.07633 24.826 3.14457C24.9281 3.21253 25.0285 3.28341 25.127 3.35633C25.2256 3.42953 25.3221 3.50508 25.4173 3.58295C25.512 3.66083 25.605 3.74104 25.6957 3.82329C25.7868 3.90583 25.8757 3.99041 25.9624 4.07733C26.0493 4.16395 26.1338 4.25291 26.2164 4.34391C26.2986 4.43462 26.3789 4.52766 26.4567 4.62245C26.5346 4.71753 26.6101 4.81408 26.6833 4.91266C26.7563 5.01125 26.8271 5.11157 26.8951 5.21366C26.9633 5.31574 27.0289 5.41957 27.0923 5.52487C27.1553 5.62987 27.2157 5.73691 27.2737 5.84512C27.3314 5.95333 27.3865 6.063 27.439 6.17383C27.4916 6.28466 27.5414 6.39695 27.5884 6.51041C27.6353 6.62387 27.6794 6.7382 27.7208 6.8537C27.7622 6.96949 27.8007 7.08587 27.8363 7.20341C27.8719 7.32095 27.9045 7.43908 27.9343 7.55808C27.9644 7.67708 27.9912 7.79695 28.0151 7.91741C28.039 8.03757 28.06 8.15862 28.0781 8.27995C28.0959 8.40129 28.111 8.52321 28.123 8.64541C28.1349 8.76762 28.144 8.88983 28.1501 9.01262C28.1563 9.13512 28.1592 9.25762 28.1592 9.38041V22.3806ZM22.9891 14.1507C22.9533 13.9698 22.9121 13.7904 22.8651 13.6122C22.8185 13.4343 22.7663 13.2575 22.7085 13.0828C22.6508 12.9079 22.5877 12.7349 22.5195 12.5637C22.4513 12.3927 22.3777 12.2239 22.2993 12.0573C22.2205 11.8908 22.1369 11.7269 22.0481 11.5656C21.9595 11.404 21.8659 11.2456 21.7673 11.0899C21.669 10.9341 21.5657 10.7819 21.4581 10.6326C21.3502 10.4832 21.2379 10.3371 21.1213 10.1947C21.0043 10.0524 20.8833 9.91361 20.7581 9.77853C20.6327 9.64349 20.5035 9.51253 20.3702 9.38537C20.2369 9.25849 20.0998 9.1357 19.9589 9.01699C19.8181 8.89829 19.6737 8.78395 19.5258 8.67429C19.378 8.56462 19.2269 8.45933 19.0726 8.3587C18.9183 8.25837 18.7608 8.1627 18.6007 8.0717C18.4405 7.98099 18.2775 7.89495 18.1121 7.81416C17.9468 7.73337 17.7788 7.65753 17.6087 7.58695C17.4387 7.51666 17.2666 7.45133 17.0925 7.39125C16.9184 7.33116 16.7425 7.27662 16.5649 7.22762C16.3875 7.17833 16.2087 7.13457 16.0285 7.09636C15.8482 7.05816 15.6671 7.02549 15.4848 6.99836C15.3028 6.97125 15.1199 6.94995 14.9365 6.93391C14.753 6.91816 14.5693 6.90795 14.3849 6.90329C14.2009 6.89862 14.0169 6.89978 13.8328 6.90649C13.6488 6.91321 13.465 6.92545 13.2818 6.94353C13.0984 6.96162 12.9158 6.98525 12.7341 7.01441C12.5521 7.04357 12.3716 7.07829 12.1916 7.11853C12.0119 7.15878 11.8337 7.20457 11.6567 7.25591C11.4799 7.30725 11.3046 7.36383 11.1314 7.42566C10.9578 7.48778 10.7864 7.55516 10.6172 7.62749C10.448 7.70012 10.2809 7.7777 10.1164 7.86053C9.9519 7.94337 9.78998 8.03087 9.63102 8.12362C9.47182 8.21636 9.31574 8.31378 9.16238 8.41616C9.00926 8.51853 8.85934 8.62529 8.71286 8.7367C8.56622 8.84841 8.42326 8.96421 8.28382 9.08437C8.14414 9.20483 8.00852 9.32908 7.87668 9.4577C7.74484 9.58633 7.6171 9.71904 7.49343 9.85525C7.36976 9.99177 7.25018 10.132 7.13526 10.2759C7.02005 10.4196 6.90952 10.5667 6.80335 10.7171C6.69747 10.8679 6.59597 11.0213 6.49943 11.1783C6.4026 11.3351 6.31101 11.4947 6.2241 11.6571C6.13718 11.8193 6.05552 11.9844 5.9788 12.1519C5.9021 12.3192 5.83064 12.489 5.76443 12.6608C5.69793 12.8326 5.63697 13.0064 5.58126 13.182C5.52584 13.3573 5.47568 13.5347 5.43076 13.7131C5.38614 13.8919 5.34676 14.0716 5.31322 14.2527C5.27939 14.4339 5.2511 14.6159 5.22864 14.7984C5.20618 14.9813 5.18926 15.1647 5.17789 15.3485C5.16652 15.5323 5.16097 15.7163 5.16097 15.9007C5.16097 16.0847 5.16652 16.2687 5.17789 16.4524C5.18926 16.6362 5.20618 16.8197 5.22864 17.0026C5.2511 17.1851 5.27939 17.3671 5.31322 17.5483C5.34676 17.7294 5.38614 17.9091 5.43076 18.0879C5.47568 18.2663 5.52584 18.4437 5.58126 18.6192C5.63697 18.7948 5.69793 18.9683 5.76443 19.1402C5.83064 19.3119 5.9021 19.4817 5.9788 19.6491C6.05552 19.8166 6.13718 19.9816 6.2241 20.1441C6.31101 20.3063 6.4026 20.4661 6.49943 20.6227C6.59597 20.7796 6.69747 20.9333 6.80335 21.0839C6.90952 21.2343 7.02005 21.3816 7.13526 21.5254C7.25018 21.6692 7.36976 21.8092 7.49343 21.9457C7.6171 22.0822 7.74484 22.2147 7.87668 22.3432C8.00852 22.4719 8.14414 22.5961 8.28382 22.7166C8.42326 22.8367 8.56622 22.9526 8.71286 23.0643C8.85934 23.1757 9.00926 23.2824 9.16238 23.3848C9.31574 23.4871 9.47182 23.5846 9.63102 23.6773C9.78998 23.7701 9.9519 23.8579 10.1164 23.9404C10.2809 24.0232 10.448 24.1008 10.6172 24.1735C10.7864 24.2461 10.9578 24.3131 11.1314 24.3753C11.3046 24.4371 11.4799 24.4937 11.6567 24.5451C11.8337 24.5963 12.0119 24.6422 12.1916 24.6824C12.3716 24.7227 12.5521 24.7574 12.7341 24.7866C12.9158 24.816 13.0984 24.8393 13.2818 24.8574C13.465 24.8755 13.6488 24.8878 13.8328 24.8944C14.0169 24.9011 14.2009 24.9023 14.3849 24.8977C14.5693 24.893 14.753 24.8828 14.9365 24.8671C15.1199 24.8513 15.3028 24.8297 15.4848 24.8026C15.6671 24.7755 15.8482 24.7428 16.0285 24.7046C16.2087 24.6663 16.3875 24.6227 16.5649 24.5736C16.7425 24.5243 16.9184 24.4698 17.0925 24.4097C17.2666 24.3496 17.4387 24.2846 17.6087 24.214C17.7788 24.1434 17.9468 24.0676 18.1121 23.9868C18.2775 23.906 18.4405 23.8199 18.6007 23.7292C18.7608 23.6383 18.9183 23.5426 19.0726 23.4423C19.2269 23.3416 19.378 23.2367 19.5258 23.1267C19.6737 23.017 19.8181 22.9027 19.9589 22.7839C20.0998 22.6655 20.2369 22.5424 20.3702 22.4156C20.5035 22.2884 20.6327 22.1575 20.7581 22.0224C20.8833 21.8874 21.0043 21.7486 21.1213 21.6062C21.2379 21.4639 21.3502 21.318 21.4581 21.1687C21.5657 21.0194 21.669 20.8668 21.7673 20.7111C21.8659 20.5553 21.9595 20.397 22.0481 20.2354C22.1369 20.0741 22.2205 19.9102 22.2993 19.7436C22.3777 19.5771 22.4513 19.4082 22.5195 19.2373C22.5877 19.0661 22.6508 18.8931 22.7085 18.7181C22.7663 18.5434 22.8185 18.3667 22.8651 18.1887C22.9121 18.0106 22.9533 17.8311 22.9891 17.6507C22.9976 17.6031 23.0008 17.5555 22.9987 17.5074C22.9967 17.4593 22.9894 17.412 22.9769 17.3657C22.9646 17.3193 22.9471 17.2747 22.9249 17.2321C22.9025 17.1895 22.8759 17.1499 22.845 17.1131C22.8138 17.0763 22.7791 17.0434 22.7409 17.0142C22.7027 16.9851 22.6616 16.9606 22.6178 16.9404C22.5744 16.9203 22.5289 16.9051 22.4819 16.8952C22.4349 16.885 22.3874 16.88 22.3393 16.8807H17.3792C17.35 16.8807 17.322 16.8862 17.2949 16.8972C17.2681 16.9083 17.2441 16.9243 17.2237 16.9448C17.203 16.9655 17.1869 16.9894 17.1759 17.0163C17.1648 17.0434 17.1593 17.0714 17.1593 17.1006V18.2754C17.1593 18.3153 17.1552 18.3547 17.1476 18.3935C17.1397 18.4326 17.1284 18.4702 17.1132 18.507C17.098 18.5437 17.0793 18.5787 17.0572 18.6117C17.035 18.6447 17.0099 18.6752 16.9819 18.7032C16.9539 18.7312 16.9233 18.7563 16.8904 18.7785C16.8574 18.8007 16.8224 18.8193 16.7857 18.8345C16.7489 18.8497 16.7113 18.8611 16.6722 18.8689C16.6334 18.8765 16.594 18.8806 16.5541 18.8806H11.7643C11.7244 18.8806 11.6849 18.8765 11.6462 18.8689C11.6071 18.8611 11.5695 18.8497 11.5327 18.8345C11.496 18.8193 11.4609 18.8007 11.428 18.7785C11.395 18.7563 11.3645 18.7312 11.3365 18.7032C11.3085 18.6752 11.2833 18.6447 11.2612 18.6117C11.239 18.5787 11.2204 18.5437 11.2052 18.507C11.19 18.4702 11.1786 18.4326 11.1708 18.3935C11.1632 18.3547 11.1591 18.3153 11.1591 18.2754V13.4856C11.1591 13.4457 11.1632 13.4063 11.1708 13.3675C11.1786 13.3284 11.19 13.2908 11.2052 13.254C11.2204 13.2173 11.239 13.1823 11.2612 13.1493C11.2833 13.1163 11.3085 13.0858 11.3365 13.0578C11.3645 13.0298 11.395 13.0047 11.428 12.9825C11.4609 12.9603 11.496 12.9417 11.5327 12.9265C11.5695 12.9113 11.6071 12.8999 11.6462 12.8921C11.6849 12.8845 11.7244 12.8804 11.7643 12.8804H16.5541C16.594 12.8804 16.6334 12.8845 16.6722 12.8921C16.7113 12.8999 16.7489 12.9113 16.7857 12.9265C16.8224 12.9417 16.8574 12.9603 16.8904 12.9825C16.9233 13.0047 16.9539 13.0298 16.9819 13.0578C17.0099 13.0858 17.035 13.1163 17.0572 13.1493C17.0793 13.1823 17.098 13.2173 17.1132 13.254C17.1284 13.2908 17.1397 13.3284 17.1476 13.3675C17.1552 13.4063 17.1593 13.4457 17.1593 13.4856V14.4504C17.1593 14.4787 17.1619 14.5067 17.1674 14.5344C17.1729 14.5622 17.1811 14.589 17.1919 14.615C17.2027 14.6412 17.2158 14.666 17.2316 14.6893C17.2473 14.713 17.2651 14.7346 17.2853 14.7547C17.3051 14.7745 17.3267 14.7923 17.3503 14.808C17.3737 14.8238 17.3985 14.8369 17.4247 14.8477C17.4506 14.8585 17.4775 14.8667 17.5052 14.8722C17.5329 14.8778 17.5609 14.8803 17.5892 14.8803H22.3941C22.4393 14.8803 22.4837 14.8751 22.5274 14.8649C22.5714 14.855 22.6137 14.8401 22.6543 14.8209C22.6948 14.8013 22.7327 14.7777 22.7683 14.75C22.8036 14.7223 22.8354 14.6908 22.864 14.6558C22.8923 14.6211 22.9168 14.5835 22.9369 14.5432C22.957 14.503 22.9725 14.461 22.9833 14.4172C22.9941 14.3735 22.9999 14.3291 23.001 14.2842C23.0019 14.2393 22.9981 14.1947 22.9891 14.1507Z" fill="#3C50E0"/>
</g>
</g>
<path d="M46.5208 23.1935C44.6128 23.1935 43.0999 22.6569 41.9819 21.5837C40.8639 20.4955 40.305 18.9304 40.305 16.8882V13.2213C40.305 11.1792 40.8639 9.62146 41.9819 8.54822C43.0999 7.46007 44.6128 6.91599 46.5208 6.91599C48.399 6.91599 49.8449 7.43771 50.8585 8.48114C51.887 9.52457 52.4013 10.9481 52.4013 12.7518V12.8859H50.0089V12.6847C50.0089 11.6263 49.7182 10.7618 49.1369 10.091C48.5704 9.42023 47.6984 9.08484 46.5208 9.08484C45.3283 9.08484 44.3967 9.45004 43.7259 10.1804C43.0551 10.8959 42.7198 11.8947 42.7198 13.1766V16.9329C42.7198 18.2 43.0551 19.1987 43.7259 19.9291C44.3967 20.6595 45.3283 21.0247 46.5208 21.0247C47.6984 21.0247 48.5704 20.6893 49.1369 20.0185C49.7182 19.3328 50.0089 18.4683 50.0089 17.4248V17.0447H52.4013V17.3578C52.4013 19.1614 51.887 20.5849 50.8585 21.6284C49.8449 22.6718 48.399 23.1935 46.5208 23.1935ZM64.0858 23.1935C62.1629 23.1935 60.635 22.6569 59.5021 21.5837C58.3692 20.4955 57.8028 18.9304 57.8028 16.8882V13.2213C57.8028 11.1792 58.3692 9.62146 59.5021 8.54822C60.635 7.46007 62.1629 6.91599 64.0858 6.91599C66.0086 6.91599 67.5365 7.46007 68.6694 8.54822C69.8172 9.62146 70.3911 11.1792 70.3911 13.2213V16.8882C70.3911 18.9304 69.8172 20.4955 68.6694 21.5837C67.5365 22.6569 66.0086 23.1935 64.0858 23.1935ZM64.0858 21.0247C65.323 21.0247 66.277 20.6669 66.9477 19.9514C67.6185 19.221 67.9539 18.2298 67.9539 16.9777V13.1319C67.9539 11.8797 67.6185 10.8959 66.9477 10.1804C66.277 9.45004 65.323 9.08484 64.0858 9.08484C62.8784 9.08484 61.9318 9.45004 61.2461 10.1804C60.5604 10.8959 60.2176 11.8797 60.2176 13.1319V16.9777C60.2176 18.2298 60.5604 19.221 61.2461 19.9514C61.9318 20.6669 62.8784 21.0247 64.0858 21.0247ZM75.2746 22.8805V20.734H77.3764V9.37551H75.2746V7.22902H83.2122C84.1513 7.22902 84.9711 7.39299 85.6717 7.72093C86.3723 8.03396 86.9163 8.48859 87.3039 9.08484C87.7064 9.66618 87.9076 10.3593 87.9076 11.1642V11.3878C87.9076 12.1033 87.7734 12.6921 87.5051 13.1542C87.2368 13.6163 86.9089 13.9741 86.5213 14.2275C86.1487 14.4809 85.7909 14.6597 85.4481 14.7641V15.1218C85.7909 15.2113 86.1561 15.3901 86.5437 15.6585C86.9462 15.9119 87.2815 16.2696 87.5499 16.7317C87.8331 17.1938 87.9747 17.7975 87.9747 18.5428V18.7664C87.9747 19.6309 87.7734 20.3688 87.371 20.98C86.9685 21.5911 86.4095 22.0607 85.694 22.3886C84.9934 22.7165 84.1811 22.8805 83.2569 22.8805H75.2746ZM79.8136 20.6893H82.9662C83.7711 20.6893 84.4047 20.4955 84.8667 20.1079C85.3288 19.7204 85.5599 19.1838 85.5599 18.4981V18.2968C85.5599 17.6112 85.3288 17.0745 84.8667 16.687C84.4196 16.2994 83.786 16.1056 82.9662 16.1056H79.8136V20.6893ZM79.8136 13.8921H82.9662C83.7264 13.8921 84.3376 13.7058 84.7997 13.3331C85.2618 12.9455 85.4928 12.4238 85.4928 11.7679V11.5444C85.4928 10.8885 85.2618 10.3742 84.7997 10.0016C84.3525 9.61401 83.7413 9.42023 82.9662 9.42023H79.8136V13.8921ZM93.8124 22.8805V7.22902H100.386C101.355 7.22902 102.205 7.40044 102.935 7.74329C103.68 8.07122 104.254 8.54822 104.657 9.17428C105.074 9.80034 105.283 10.5456 105.283 11.4102V11.6562C105.283 12.64 105.044 13.43 104.567 14.0262C104.105 14.6076 103.539 15.0175 102.868 15.256V15.6137C103.434 15.6436 103.889 15.8373 104.232 16.1951C104.575 16.5379 104.746 17.0373 104.746 17.6931V22.8805H102.309V18.0285C102.309 17.6261 102.205 17.3056 101.996 17.0671C101.787 16.8286 101.452 16.7093 100.99 16.7093H96.2272V22.8805H93.8124ZM96.2272 14.5181H100.118C100.982 14.5181 101.653 14.302 102.13 13.8697C102.607 13.4225 102.846 12.8188 102.846 12.0586V11.8797C102.846 11.1195 102.607 10.5233 102.13 10.091C101.668 9.64382 100.997 9.42023 100.118 9.42023H96.2272V14.5181ZM109.907 22.8805L114.379 7.22902H118.627L123.077 22.8805H120.595L119.567 19.1912H113.44L112.412 22.8805H109.907ZM114.044 16.9553H118.963L116.682 8.72709H116.324L114.044 16.9553ZM130.511 22.8805V9.42023H125.704V7.22902H137.733V9.42023H132.926V22.8805H130.511ZM148.278 23.1935C146.355 23.1935 144.827 22.6569 143.694 21.5837C142.561 20.4955 141.995 18.9304 141.995 16.8882V13.2213C141.995 11.1792 142.561 9.62146 143.694 8.54822C144.827 7.46007 146.355 6.91599 148.278 6.91599C150.201 6.91599 151.729 7.46007 152.862 8.54822C154.009 9.62146 154.583 11.1792 154.583 13.2213V16.8882C154.583 18.9304 154.009 20.4955 152.862 21.5837C151.729 22.6569 150.201 23.1935 148.278 23.1935ZM148.278 21.0247C149.515 21.0247 150.469 20.6669 151.14 19.9514C151.811 19.221 152.146 18.2298 152.146 16.9777V13.1319C152.146 11.8797 151.811 10.8959 151.14 10.1804C150.469 9.45004 149.515 9.08484 148.278 9.08484C147.071 9.08484 146.124 9.45004 145.438 10.1804C144.753 10.8959 144.41 11.8797 144.41 13.1319V16.9777C144.41 18.2298 144.753 19.221 145.438 19.9514C146.124 20.6669 147.071 21.0247 148.278 21.0247Z" fill="#060606"/>
<defs>
<clipPath id="clip0_2009_5037">
<rect width="28" height="28" fill="white" transform="translate(0.15918 1.88049)"/>
</clipPath>
</defs>
</svg>
